<?xml version="1.0" encoding="utf-8"?>
<!-- Generator: Adobe Illustrator 17.0.0, SVG Export Plug-In . SVG Version: 6.00 Build 0)  -->
<!DOCTYPE svg PUBLIC "-//W3C//DTD SVG 1.1//EN" "http://www.w3.org/Graphics/SVG/1.1/DTD/svg11.dtd" [
	<!ENTITY ns_extend "http://ns.adobe.com/Extensibility/1.0/">
	<!ENTITY ns_ai "http://ns.adobe.com/AdobeIllustrator/10.0/">
	<!ENTITY ns_graphs "http://ns.adobe.com/Graphs/1.0/">
	<!ENTITY ns_vars "http://ns.adobe.com/Variables/1.0/">
	<!ENTITY ns_imrep "http://ns.adobe.com/ImageReplacement/1.0/">
	<!ENTITY ns_sfw "http://ns.adobe.com/SaveForWeb/1.0/">
	<!ENTITY ns_custom "http://ns.adobe.com/GenericCustomNamespace/1.0/">
	<!ENTITY ns_adobe_xpath "http://ns.adobe.com/XPath/1.0/">
]>
<svg version="1.1" xmlns:x="&ns_extend;" xmlns:i="&ns_ai;" xmlns:graph="&ns_graphs;"
	 xmlns="http://www.w3.org/2000/svg" xmlns:xlink="http://www.w3.org/1999/xlink" x="0px" y="0px" width="90.985px"
	 height="90.984px" viewBox="0 0 90.985 90.984" enable-background="new 0 0 90.985 90.984" xml:space="preserve">
<metadata>
	<sfw  xmlns="&ns_sfw;">
		<slices></slices>
		<sliceSourceBounds  width="1610.193" height="16383" y="-8131.766" x="-459.007" bottomLeftOrigin="true"></sliceSourceBounds>
	</sfw>
</metadata>
<g id="Background">
</g>
<g id="Icons">
	<path fill="#FFCC66" d="M80.115,0H10.87C4.876,0,0,4.876,0,10.869v69.245c0,5.994,4.876,10.87,10.87,10.87h69.245
		c5.994,0,10.87-4.876,10.87-10.87V10.869C90.985,4.876,86.108,0,80.115,0z"/>
	<g>
		<defs>
			<path id="SVGID_103_" d="M80.115,0H10.87C4.876,0,0,4.876,0,10.869v69.245c0,5.994,4.876,10.87,10.87,10.87h69.245
				c5.994,0,10.87-4.876,10.87-10.87V10.869C90.985,4.876,86.108,0,80.115,0z"/>
		</defs>
		<clipPath id="SVGID_2_">
			<use xlink:href="#SVGID_103_"  overflow="visible"/>
		</clipPath>
		<g opacity="0.65" clip-path="url(#SVGID_2_)">
			<g>
				<polygon fill="#939598" points="50.283,68.69 51.074,68.69 62.543,57.223 62.541,56.431 50.283,56.431 				"/>
				<path fill="#939598" d="M57.751,32.76H35.629v-3.382h22.122V32.76z M30.416,23.882l0,44.809h17.614l0-14.514h14.514
					l-0.001-30.295H30.416z M57.752,49.245H35.629v-3.381h22.122L57.752,49.245z M57.751,43.75H35.629v-3.382h22.122V43.75z
					 M57.751,38.255H35.629v-3.382h22.122V38.255z"/>
			</g>
			<g>
				<polygon fill="#939598" points="50.608,69.015 51.399,69.015 62.867,57.547 62.867,56.756 50.608,56.756 				"/>
				<path fill="#939598" d="M58.076,33.084H35.954v-3.382h22.122V33.084z M30.741,24.206l0,44.809h17.613l0-14.514h14.514l0-30.295
					H30.741z M58.077,49.569H35.954l0.001-3.381h22.122L58.077,49.569z M58.076,44.074H35.954v-3.381h22.122V44.074z M58.076,38.579
					H35.954v-3.382h22.122V38.579z"/>
			</g>
			<g>
				<polygon fill="#939598" points="50.933,69.34 51.723,69.34 63.191,57.871 63.191,57.08 50.932,57.08 				"/>
				<path fill="#939598" d="M58.4,33.408l-22.122-0.001v-3.381H58.4L58.4,33.408z M31.065,24.53l0,44.809h17.614l0-14.514h14.514
					l0-30.295H31.065z M58.401,49.894l-22.123,0.001v-3.382h22.123V49.894z M58.4,44.398H36.278v-3.381H58.4V44.398z M58.4,38.903
					H36.278v-3.382H58.4V38.903z"/>
			</g>
			<g>
				<polygon fill="#939598" points="51.257,69.664 52.048,69.664 63.516,58.195 63.515,57.404 51.257,57.404 				"/>
				<path fill="#939598" d="M58.724,33.732H36.603v-3.382h22.122L58.724,33.732z M31.39,24.855l-0.001,44.808h17.614l0-14.514
					h14.514l0-30.294H31.39z M58.726,50.218l-22.123,0.001v-3.382h22.122L58.726,50.218z M58.725,44.723H36.603v-3.381h22.122
					V44.723z M58.725,39.228H36.603v-3.382h22.122V39.228z"/>
			</g>
			<g>
				<polygon fill="#939598" points="51.582,69.988 52.373,69.988 63.841,58.521 63.839,57.729 51.582,57.729 				"/>
				<path fill="#939598" d="M59.049,34.058H36.927v-3.383h22.121V34.058z M31.714,25.18l-0.001,44.809h17.614l-0.001-14.514h14.515
					L63.84,25.18H31.714z M59.05,50.543H36.927v-3.381h22.121L59.05,50.543z M59.049,45.048H36.927v-3.382h22.121V45.048z
					 M59.049,39.553H36.927v-3.382h22.121V39.553z"/>
			</g>
			<g>
				<polygon fill="#939598" points="51.906,70.313 52.697,70.313 64.165,58.845 64.164,58.053 51.906,58.053 				"/>
				<path fill="#939598" d="M59.374,34.382l-22.122-0.001V31h22.122V34.382z M32.039,25.504l-0.001,44.809h17.614l-0.001-14.514
					h14.514l-0.001-30.295H32.039z M59.375,50.867H37.252v-3.382h22.123L59.375,50.867z M59.374,45.372H37.252V41.99h22.122V45.372z
					 M59.374,39.877H37.252v-3.382h22.122V39.877z"/>
			</g>
			<g>
				<polygon fill="#939598" points="52.231,70.637 53.021,70.637 64.489,59.169 64.489,58.378 52.23,58.378 				"/>
				<path fill="#939598" d="M59.698,34.706l-22.122-0.001v-3.381h22.122L59.698,34.706z M32.363,25.828l0,44.809h17.614l0-14.514
					h14.514l0-30.295H32.363z M59.699,51.191l-22.123,0.001l0-3.382h22.122L59.699,51.191z M59.698,45.696H37.576v-3.382h22.122
					V45.696z M59.698,40.201H37.576v-3.382h22.122V40.201z"/>
			</g>
			<g>
				<polygon fill="#939598" points="52.555,70.962 53.346,70.962 64.814,59.494 64.813,58.702 52.555,58.702 				"/>
				<path fill="#939598" d="M60.023,35.031L37.9,35.03v-3.382h22.122V35.031z M32.688,26.153l-0.001,44.808H50.3l0-14.514h14.514
					l0-30.294H32.688z M60.023,51.516L37.9,51.517v-3.382h22.122L60.023,51.516z M60.023,46.022H37.9V42.64h22.122V46.022z
					 M60.023,40.525H37.9v-3.382h22.122V40.525z"/>
			</g>
			<g>
				<polygon fill="#939598" points="52.879,71.286 53.67,71.286 65.139,59.818 65.138,59.026 52.879,59.026 				"/>
				<path fill="#939598" d="M60.347,35.355H38.225v-3.382h22.122L60.347,35.355z M33.012,26.478l-0.001,44.809l17.614-0.001
					l-0.001-14.513h14.514l-0.001-30.295H33.012z M60.348,51.841H38.225v-3.382h22.123L60.348,51.841z M60.347,46.346H38.225v-3.382
					h22.122V46.346z M60.347,40.85H38.225v-3.381h22.122V40.85z"/>
			</g>
			<g>
				<polygon fill="#939598" points="53.205,71.61 53.995,71.61 65.463,60.143 65.462,59.351 53.204,59.352 				"/>
				<path fill="#939598" d="M60.671,35.68L38.55,35.679v-3.381h22.122L60.671,35.68z M33.336,26.802L33.336,71.61l17.614-0.001
					l-0.001-14.513h14.514l0-30.295H33.336z M60.672,52.165H38.549l0-3.381h22.122L60.672,52.165z M60.672,46.67H38.55v-3.382
					h22.122V46.67z M60.672,41.175H38.55v-3.382h22.122V41.175z"/>
			</g>
			<g>
				<polygon fill="#939598" points="53.529,71.935 54.319,71.935 65.787,60.467 65.787,59.676 53.528,59.676 				"/>
				<path fill="#939598" d="M60.996,36.004H38.874v-3.382h22.122L60.996,36.004z M33.661,27.126L33.66,71.935h17.614l0-14.514
					h14.514l-0.001-30.295H33.661z M60.997,52.489H38.874v-3.381h22.122L60.997,52.489z M60.996,46.994H38.874v-3.382h22.122V46.994
					z M60.996,41.499H38.874v-3.382h22.122V41.499z"/>
			</g>
			<g>
				<polygon fill="#939598" points="53.853,72.26 54.644,72.26 66.112,60.791 66.111,60 53.853,60 				"/>
				<path fill="#939598" d="M61.32,36.328H39.199v-3.382h22.122L61.32,36.328z M33.985,27.451l0,44.809l17.614-0.001l0-14.513
					h14.514l-0.001-30.295H33.985z M61.321,52.814H39.198v-3.382h22.123L61.321,52.814z M61.321,47.319H39.199v-3.382h22.122V47.319
					z M61.321,41.823H39.199v-3.381h22.122V41.823z"/>
			</g>
			<g>
				<polygon fill="#939598" points="54.178,72.584 54.968,72.584 66.436,61.116 66.436,60.324 54.177,60.325 				"/>
				<path fill="#939598" d="M61.645,36.653l-22.122-0.001v-3.382h22.123L61.645,36.653z M34.31,27.775l-0.001,44.809h17.614V58.07
					h14.513V27.775H34.31z M61.646,53.139H39.523l0-3.382h22.123V53.139z M61.646,47.644H39.523v-3.382h22.123V47.644z
					 M61.646,42.147H39.523v-3.381h22.123V42.147z"/>
			</g>
			<g>
				<polygon fill="#939598" points="54.502,72.908 55.293,72.908 66.761,61.44 66.76,60.648 54.502,60.649 				"/>
				<path fill="#939598" d="M61.969,36.978l-22.122-0.001v-3.382H61.97L61.969,36.978z M34.635,28.1l-0.001,44.809h17.614l0-14.514
					h14.514l0-30.295H34.635z M61.97,53.463H39.847v-3.381H61.97L61.97,53.463z M61.97,47.968H39.847v-3.382H61.97V47.968z
					 M61.97,42.473H39.847v-3.382H61.97V42.473z"/>
			</g>
			<g>
				<polygon fill="#939598" points="54.827,73.233 55.617,73.233 67.086,61.766 67.084,60.974 54.826,60.974 				"/>
				<path fill="#939598" d="M62.294,37.302H40.172V33.92h22.122L62.294,37.302z M34.959,28.425l-0.001,44.809l17.614-0.001l0-14.513
					h14.514l-0.001-30.295H34.959z M62.295,53.788H40.172v-3.382h22.123L62.295,53.788z M62.294,48.293H40.172v-3.382h22.122V48.293
					z M62.294,42.797H40.172v-3.381h22.122V42.797z"/>
			</g>
			<g>
				<polygon fill="#939598" points="55.15,73.558 55.941,73.558 67.41,62.089 67.409,61.298 55.15,61.298 				"/>
				<path fill="#939598" d="M62.618,37.627l-22.122-0.001v-3.382h22.123L62.618,37.627z M35.283,28.749v44.809h17.613l0-14.514
					h14.513V28.749H35.283z M62.619,54.112H40.496V50.73h22.123V54.112z M62.619,48.617H40.496v-3.382h22.123V48.617z
					 M62.619,43.121H40.496V39.74h22.123V43.121z"/>
			</g>
			<g>
				<polygon fill="#939598" points="55.476,73.882 56.266,73.882 67.734,62.414 67.733,61.622 55.475,61.623 				"/>
				<path fill="#939598" d="M62.943,37.951L40.821,37.95v-3.382h22.122V37.951z M35.608,29.073l-0.001,44.809h17.614L53.22,59.368
					h14.514V29.073H35.608z M62.943,54.437H40.821v-3.382h22.122L62.943,54.437z M62.943,48.941H40.821V45.56h22.122V48.941z
					 M62.943,43.445H40.821v-3.381h22.122V43.445z"/>
			</g>
			<g>
				<polygon fill="#939598" points="55.8,74.207 56.59,74.207 68.059,62.739 68.058,61.947 55.799,61.947 				"/>
				<path fill="#939598" d="M63.267,38.275H41.146v-3.382h22.122L63.267,38.275z M35.933,29.397l-0.001,44.81l17.614-0.001l0-14.513
					h14.514l-0.001-30.296H35.933z M63.268,54.762H41.145V51.38h22.123V54.762z M63.268,49.267H41.146v-3.382h22.122V49.267z
					 M63.268,43.771H41.146V40.39h22.122V43.771z"/>
			</g>
			<g>
				<polygon fill="#939598" points="56.125,74.531 56.915,74.531 68.383,63.063 68.382,62.271 56.124,62.271 				"/>
				<path fill="#939598" d="M63.592,38.6L41.47,38.599l0-3.381h22.122V38.6z M36.257,29.723L36.256,74.53h17.614L53.87,60.017
					h14.514l-0.001-30.294H36.257z M63.593,55.085H41.47l0-3.381h22.122L63.593,55.085z M63.592,49.59H41.47l0-3.381h22.122V49.59z
					 M63.592,44.095H41.47l0-3.382h22.122V44.095z"/>
			</g>
			<g>
				<polygon fill="#939598" points="56.449,74.855 57.24,74.855 68.708,63.387 68.707,62.596 56.448,62.596 				"/>
				<path fill="#939598" d="M63.916,38.925l-22.122-0.001v-3.382h22.122L63.916,38.925z M36.581,30.047l0,44.808h17.614l0-14.513
					h14.514l0-30.295H36.581z M63.917,55.409L41.795,55.41v-3.382h22.122L63.917,55.409z M63.917,49.915H41.795v-3.382h22.122
					V49.915z M63.917,44.419H41.795v-3.382h22.122V44.419z"/>
			</g>
			<g>
				<polygon fill="#939598" points="56.774,75.18 57.564,75.18 69.032,63.712 69.031,62.921 56.773,62.921 				"/>
				<path fill="#939598" d="M64.241,39.249H42.119v-3.382h22.122V39.249z M36.906,30.371l0,44.809h17.613l0-14.514h14.514
					l-0.001-30.295H36.906z M64.242,55.734H42.119v-3.381h22.122L64.242,55.734z M64.241,50.239H42.119v-3.381h22.122V50.239z
					 M64.241,44.744H42.119v-3.382h22.122V44.744z"/>
			</g>
			<g>
				<polygon fill="#939598" points="57.098,75.505 57.888,75.505 69.356,64.036 69.356,63.245 57.097,63.245 				"/>
				<path fill="#939598" d="M64.565,39.573l-22.122-0.001l0-3.381h22.122V39.573z M37.23,30.695l0,44.809h17.614l0-14.514h14.513
					V30.695H37.23z M64.566,56.059H42.442l0.001-3.382h22.122L64.566,56.059z M64.565,50.564H42.443l0-3.381h22.122V50.564z
					 M64.565,45.067H42.443l0-3.381h22.122V45.067z"/>
			</g>
			<g>
				<polygon fill="#939598" points="57.422,75.829 58.213,75.829 69.681,64.36 69.68,63.569 57.422,63.569 				"/>
				<path fill="#939598" d="M64.89,39.897H42.768v-3.382H64.89L64.89,39.897z M37.555,31.021l-0.001,44.808h17.614l0-14.514h14.514
					l0-30.294H37.555z M64.891,56.383l-22.123,0.001v-3.382H64.89L64.891,56.383z M64.89,50.888H42.768v-3.381H64.89V50.888z
					 M64.89,45.393H42.768v-3.382H64.89V45.393z"/>
			</g>
			<g>
				<polygon fill="#939598" points="57.747,76.153 58.538,76.153 70.005,64.686 70.004,63.894 57.746,63.895 				"/>
				<path fill="#939598" d="M65.214,40.223H43.092V36.84h22.122L65.214,40.223z M37.879,31.345l-0.001,44.809h17.614l0-14.514
					h14.514l-0.001-30.295H37.879z M65.215,56.708H43.092v-3.381h22.123L65.215,56.708z M65.214,51.213H43.092v-3.381h22.122V51.213
					z M65.214,45.718H43.092v-3.382h22.122V45.718z"/>
			</g>
			<g>
				<polygon fill="#939598" points="58.071,76.478 58.862,76.478 70.33,65.009 70.329,64.218 58.071,64.219 				"/>
				<path fill="#939598" d="M65.539,40.547l-22.122-0.001l0-3.381h22.122L65.539,40.547z M38.204,31.669l-0.001,44.809h17.614
					l-0.001-14.514H70.33l0-30.295H38.204z M65.54,57.032H43.417l0-3.382h22.122L65.54,57.032z M65.539,51.537H43.417l0-3.382
					h22.122V51.537z M65.539,46.041H43.417l0-3.381h22.122V46.041z"/>
			</g>
			<g>
				<polygon fill="#939598" points="58.396,76.802 59.187,76.802 70.654,65.334 70.654,64.543 58.395,64.543 				"/>
				<path fill="#939598" d="M65.863,40.871L43.741,40.87v-3.381h22.122L65.863,40.871z M38.528,31.994l0,44.808h17.613V62.288
					l14.513,0.001V31.993L38.528,31.994z M65.864,57.356H43.741l0-3.381h22.122L65.864,57.356z M65.863,51.861H43.741V48.48h22.122
					V51.861z M65.863,46.366H43.741v-3.382h22.122V46.366z"/>
			</g>
			<g>
				<polygon fill="#939598" points="58.72,77.127 59.511,77.127 70.979,65.658 70.978,64.867 58.719,64.867 				"/>
				<path fill="#939598" d="M66.188,41.195H44.066v-3.382h22.122L66.188,41.195z M38.853,32.317l0,44.809h17.613V62.612h14.514
					l0-30.295H38.853z M66.189,57.681l-22.123,0.001V54.3h22.123L66.189,57.681z M66.188,52.187H44.066v-3.382h22.122V52.187z
					 M66.188,46.69H44.066v-3.382h22.122V46.69z"/>
			</g>
			<g>
				<polygon fill="#939598" points="59.045,77.451 59.836,77.451 71.303,65.982 71.303,65.191 59.045,65.191 				"/>
				<path fill="#939598" d="M66.512,41.52H44.39v-3.382h22.122V41.52z M39.177,32.643l-0.001,44.808L56.79,77.45l0-14.513
					l14.514-0.001l0-30.294H39.177z M66.513,58.006H44.39v-3.382h22.122L66.513,58.006z M66.513,52.51H44.39v-3.381h22.122
					L66.513,52.51z M66.513,47.015H44.39v-3.381h22.122L66.513,47.015z"/>
			</g>
			<g>
				<polygon fill="#939598" points="59.369,77.775 60.16,77.775 71.628,66.308 71.628,65.517 59.369,65.517 				"/>
				<path fill="#939598" d="M66.836,41.845l-22.121-0.001v-3.381h22.122L66.836,41.845z M39.502,32.968l0,44.808h17.613l0-14.514
					h14.514V32.967L39.502,32.968z M66.837,58.33H44.714l0-3.381h22.122L66.837,58.33z M66.837,52.835H44.715v-3.382h22.122V52.835z
					 M66.837,47.34H44.715v-3.382h22.122V47.34z"/>
			</g>
			<g>
				<polygon fill="#939598" points="59.694,78.1 60.484,78.1 71.952,66.632 71.952,65.841 59.693,65.841 				"/>
				<path fill="#939598" d="M67.161,42.169H45.039v-3.382h22.122L67.161,42.169z M39.826,33.291L39.825,78.1h17.614l0-14.514h14.514
					l0-30.295H39.826z M67.162,58.654H45.039v-3.381h22.122L67.162,58.654z M67.161,53.159H45.039v-3.382h22.122V53.159z
					 M67.161,47.664H45.039v-3.382h22.122V47.664z"/>
			</g>
			<g>
				<polygon fill="#939598" points="60.018,78.425 60.809,78.425 72.276,66.956 72.276,66.165 60.018,66.165 				"/>
				<path fill="#939598" d="M67.486,42.493l-22.123-0.001l0-3.381h22.122V42.493z M40.15,33.616l0,44.809l17.613-0.001V63.911
					l14.513-0.001V33.616H40.15z M67.486,58.979H45.363l0-3.382h22.122L67.486,58.979z M67.486,53.483H45.363l0-3.381h22.122V53.483
					z M67.486,47.988H45.363l0-3.381h22.122V47.988z"/>
			</g>
			<g>
				<polygon fill="#939598" points="60.342,78.749 61.133,78.749 72.601,67.281 72.601,66.49 60.342,66.49 				"/>
				<path fill="#939598" d="M67.809,42.818l-22.121-0.001v-3.382H67.81L67.809,42.818z M40.475,33.94l-0.001,44.809h17.613V64.235
					h14.514V33.94H40.475z M67.811,59.304H45.688l0-3.382H67.81L67.811,59.304z M67.81,53.809H45.688v-3.382H67.81V53.809z
					 M67.81,48.313H45.688v-3.381H67.81V48.313z"/>
			</g>
			<g>
				<polygon fill="#939598" points="60.667,79.073 61.458,79.073 72.926,67.605 72.925,66.813 60.667,66.814 				"/>
				<path fill="#939598" d="M68.134,43.143l-22.122-0.001V39.76h22.123L68.134,43.143z M40.8,34.265l-0.001,44.809h17.614l0-14.514
					h14.514l0-30.295H40.8z M68.135,59.628H46.012v-3.381h22.123V59.628z M68.135,54.133H46.012v-3.382h22.123V54.133z
					 M68.135,48.638H46.012v-3.382h22.123V48.638z"/>
			</g>
			<g>
				<polygon fill="#939598" points="60.992,79.398 61.782,79.398 73.25,67.93 73.25,67.139 60.991,67.139 				"/>
				<path fill="#939598" d="M68.459,43.467H46.337l0-3.382h22.122V43.467z M41.124,34.59l-0.001,44.809l17.614-0.001l-0.001-14.513
					l14.514-0.001L73.25,34.59H41.124z M68.46,59.953H46.337l0-3.382h22.122L68.46,59.953z M68.46,54.457H46.337l0-3.381h22.122
					L68.46,54.457z M68.46,48.962H46.337l0-3.381h22.122L68.46,48.962z"/>
			</g>
			<g>
				<polygon fill="#939598" points="61.316,79.723 62.106,79.723 73.574,68.254 73.574,67.463 61.315,67.463 				"/>
				<path fill="#939598" d="M68.783,43.791H46.662v-3.382h22.122L68.783,43.791z M41.448,34.914l0,44.809l17.613-0.001V65.209
					h14.514V34.914H41.448z M68.784,60.277H46.661l0.001-3.382h22.122L68.784,60.277z M68.783,54.782H46.662V51.4h22.122V54.782z
					 M68.783,49.286H46.662v-3.381h22.122V49.286z"/>
			</g>
			<g>
				<polygon fill="#939598" points="61.641,80.047 62.431,80.047 73.899,68.579 73.899,67.787 61.64,67.788 				"/>
				<path fill="#939598" d="M69.107,44.116l-22.121-0.001v-3.382h22.122L69.107,44.116z M41.773,35.238l0,44.808h17.613V65.533
					h14.514V35.238H41.773z M69.108,60.602H46.985V57.22h22.123V60.602z M69.108,55.106H46.986v-3.382h22.122V55.106z M69.108,49.61
					H46.986V46.23h22.122V49.61z"/>
			</g>
			<g>
				<polygon fill="#939598" points="61.965,80.372 62.755,80.372 74.224,68.903 74.223,68.112 61.964,68.112 				"/>
				<path fill="#939598" d="M69.432,44.44H47.311v-3.382h22.122L69.432,44.44z M42.097,35.563l0,44.809l17.614-0.001l0-14.513
					h14.514l0-30.296H42.097z M69.433,60.927H47.31v-3.382h22.123V60.927z M69.433,55.432H47.311V52.05h22.122V55.432z
					 M69.433,49.936H47.311v-3.381h22.122V49.936z"/>
			</g>
			<g>
				<polygon fill="#939598" points="62.29,80.696 63.08,80.696 74.548,69.228 74.547,68.437 62.289,68.437 				"/>
				<path fill="#939598" d="M69.757,44.765l-22.122-0.001v-3.381h22.122V44.765z M42.422,35.888l-0.001,44.808h17.614l-0.001-14.514
					h14.514l0-30.294H42.422z M69.758,61.25H47.634l0-3.381h22.122L69.758,61.25z M69.757,55.755H47.635v-3.381h22.122
					L69.757,55.755z M69.757,50.26H47.635v-3.382h22.122L69.757,50.26z"/>
			</g>
			<g>
				<polygon fill="#939598" points="62.614,81.021 63.405,81.021 74.873,69.552 74.872,68.761 62.613,68.761 				"/>
				<path fill="#939598" d="M70.081,45.09L47.96,45.089v-3.382h22.122L70.081,45.09z M42.746,36.212L42.745,81.02h17.614V66.507
					h14.514l0-30.295H42.746z M70.082,61.574l-22.123,0.001v-3.382h22.123V61.574z M70.082,56.079H47.96v-3.381h22.122V56.079z
					 M70.082,50.584H47.96v-3.382h22.122V50.584z"/>
			</g>
			<g>
				<polygon fill="#939598" points="62.939,81.345 63.729,81.345 75.197,69.877 75.196,69.085 62.938,69.086 				"/>
				<path fill="#939598" d="M70.406,45.414H48.284v-3.382h22.122V45.414z M43.071,36.536L43.07,81.345h17.614l0-14.514h14.514
					l-0.001-30.295H43.071z M70.407,61.899H48.284v-3.381h22.123L70.407,61.899z M70.406,56.404H48.284v-3.381h22.122V56.404z
					 M70.406,50.909H48.284v-3.382h22.122V50.909z"/>
			</g>
			<g>
				<polygon fill="#939598" points="63.263,81.67 64.053,81.67 75.521,70.201 75.521,69.41 63.262,69.41 				"/>
				<path fill="#939598" d="M70.731,45.738l-22.123-0.001l0-3.381h22.122V45.738z M43.395,36.86l0,44.809h17.614l0-14.514h14.513
					V36.86H43.395z M70.731,62.224H48.607l0.001-3.382h22.122L70.731,62.224z M70.731,56.729H48.608l0-3.382h22.122V56.729z
					 M70.731,51.232H48.608l0-3.381h22.122V51.232z"/>
			</g>
			<g>
				<polygon fill="#939598" points="63.587,81.994 64.378,81.994 75.846,70.525 75.845,69.734 63.587,69.734 				"/>
				<path fill="#939598" d="M71.054,46.063H48.933v-3.382h22.123L71.054,46.063z M43.72,37.186l-0.001,44.808h17.614V67.479
					l14.514,0.001l0-30.295H43.72z M71.055,62.548l-22.123,0.001v-3.382h22.123V62.548z M71.055,57.053H48.933v-3.381h22.123V57.053
					z M71.055,51.558H48.933v-3.382h22.123V51.558z"/>
			</g>
			<g>
				<polygon fill="#939598" points="63.912,82.318 64.703,82.318 76.171,70.851 76.169,70.059 63.912,70.06 				"/>
				<path fill="#939598" d="M71.379,46.388l-22.122-0.001v-3.382h22.122V46.388z M44.044,37.51l-0.001,44.809h17.614l-0.001-14.514
					h14.515L76.17,37.51H44.044z M71.38,62.873H49.257v-3.381H71.38V62.873z M71.379,57.378H49.257v-3.382h22.122V57.378z
					 M71.379,51.883H49.257v-3.382h22.122V51.883z"/>
			</g>
			<g>
				<polygon fill="#939598" points="64.236,82.643 65.027,82.643 76.495,71.174 76.494,70.383 64.236,70.383 				"/>
				<path fill="#939598" d="M71.704,46.712l-22.122-0.001l0-3.381h22.122V46.712z M44.369,37.834l-0.001,44.809h17.614
					l-0.001-14.514h14.514l0-30.295H44.369z M71.705,63.197H49.581l0.001-3.382h22.122L71.705,63.197z M71.704,57.702H49.582
					l0-3.382h22.122L71.704,57.702z M71.704,52.206H49.582l0-3.381h22.122L71.704,52.206z"/>
			</g>
			<g>
				<polygon fill="#939598" points="64.561,82.967 65.351,82.967 76.819,71.499 76.819,70.708 64.56,70.708 				"/>
				<path fill="#939598" d="M72.028,47.036l-22.122-0.001v-3.381h22.122L72.028,47.036z M44.693,38.159l0,44.808h17.613V68.453
					l14.513,0.001V38.158L44.693,38.159z M72.029,63.521H49.906v-3.381h22.122L72.029,63.521z M72.028,58.026H49.906v-3.382h22.122
					V58.026z M72.028,52.531H49.906v-3.382h22.122V52.531z"/>
			</g>
			<g>
				<polygon fill="#939598" points="64.885,83.292 65.676,83.292 77.144,71.824 77.143,71.032 64.885,71.032 				"/>
				<path fill="#939598" d="M72.353,47.36H50.231v-3.382h22.122V47.36z M45.018,38.482l-0.001,44.809H62.63l0-14.514h14.514
					l0-30.295H45.018z M72.353,63.846l-22.122,0.001v-3.382h22.122V63.846z M72.353,58.352H50.231V54.97h22.122V58.352z
					 M72.353,52.855H50.231v-3.382h22.122V52.855z"/>
			</g>
			<g>
				<polygon fill="#939598" points="65.21,83.616 66.001,83.616 77.468,72.147 77.468,71.356 65.21,71.356 				"/>
				<path fill="#939598" d="M72.677,47.685H50.555l0-3.382h22.122V47.685z M45.342,38.808l-0.001,44.809l17.614-0.001l-0.001-14.513
					l14.514-0.001l-0.001-30.294H45.342z M72.678,64.171H50.555l0-3.382h22.122L72.678,64.171z M72.678,58.675H50.555l0-3.381
					h22.122L72.678,58.675z M72.678,53.18H50.555l0-3.381h22.122L72.678,53.18z"/>
			</g>
			<g>
				<polygon fill="#939598" points="65.534,83.94 66.325,83.94 77.793,72.473 77.793,71.682 65.534,71.682 				"/>
				<path fill="#939598" d="M73.001,48.01l-22.122-0.001v-3.381h22.123L73.001,48.01z M45.667,39.133l0,44.808h17.613V69.427h14.513
					V39.132L45.667,39.133z M73.003,64.495H50.879v-3.382h22.123L73.003,64.495z M73.002,59H50.879v-3.382h22.123V59z
					 M73.002,53.505H50.879v-3.382h22.123V53.505z"/>
			</g>
			<g>
				<polygon fill="#939598" points="65.859,84.265 66.649,84.265 78.117,72.797 78.116,72.005 65.858,72.006 				"/>
				<path fill="#939598" d="M73.326,48.334l-22.122-0.001v-3.381h22.122L73.326,48.334z M45.991,39.457l0,44.808h17.613V69.751
					h14.514l0-30.295L45.991,39.457z M73.327,64.819H51.204v-3.381h22.123V64.819z M73.326,59.324H51.204v-3.382h22.122V59.324z
					 M73.326,53.829H51.204v-3.382h22.122V53.829z"/>
			</g>
			<g>
				<polygon fill="#939598" points="66.183,84.59 66.974,84.59 78.441,73.121 78.441,72.33 66.183,72.33 				"/>
				<path fill="#939598" d="M73.65,48.659l-22.122-0.001l0-3.381H73.65V48.659z M46.315,39.781l0,44.809h17.614l-0.001-14.514
					h14.514l-0.001-30.295H46.315z M73.651,65.145H51.528l0-3.382H73.65L73.651,65.145z M73.651,59.649H51.528l0-3.382H73.65
					L73.651,59.649z M73.651,54.153H51.528l0-3.381H73.65L73.651,54.153z"/>
			</g>
			<g>
				<polygon fill="#939598" points="66.507,84.914 67.298,84.914 78.766,73.446 78.766,72.655 66.507,72.655 				"/>
				<path fill="#939598" d="M73.975,48.983l-22.122-0.001v-3.382h22.122L73.975,48.983z M46.64,40.105v44.809h17.613L64.252,70.4
					h14.514V40.105H46.64z M73.975,65.469H51.853v-3.382h22.122V65.469z M73.975,59.974H51.853v-3.382h22.122V59.974z
					 M73.975,54.478H51.853v-3.381h22.122V54.478z"/>
			</g>
			<g>
				<polygon fill="#939598" points="66.832,85.238 67.623,85.238 79.091,73.771 79.09,72.979 66.832,72.979 				"/>
				<path fill="#939598" d="M74.299,49.308l-22.122-0.001v-3.382H74.3L74.299,49.308z M46.964,40.43l-0.001,44.809h17.614V70.725
					h14.514l0-30.295H46.964z M74.3,65.793H52.177v-3.381H74.3V65.793z M74.3,60.298H52.177v-3.382H74.3V60.298z M74.3,54.803
					H52.177v-3.382H74.3V54.803z"/>
			</g>
			<g>
				<polygon fill="#939598" points="67.157,85.563 67.947,85.563 79.415,74.095 79.414,73.304 67.156,73.304 				"/>
				<path fill="#939598" d="M74.624,49.632H52.502V46.25h22.122V49.632z M47.289,40.755l-0.001,44.809l17.614-0.001L64.901,71.05
					l14.514-0.001l-0.001-30.294H47.289z M74.625,66.118H52.502v-3.382h22.122L74.625,66.118z M74.625,60.622H52.502v-3.381h22.122
					L74.625,60.622z M74.625,55.127H52.502v-3.381h22.122L74.625,55.127z"/>
			</g>
			<g>
				<polygon fill="#939598" points="67.482,85.888 68.272,85.888 79.74,74.419 79.739,73.628 67.481,73.628 				"/>
				<path fill="#939598" d="M74.949,49.956l-22.123-0.001l0.001-3.381h22.122V49.956z M47.614,41.079l-0.001,44.808h17.614
					l-0.001-14.513l14.514-0.001l-0.001-30.294H47.614z M74.95,66.441H52.826V63.06h22.123L74.95,66.441z M74.949,60.947H52.826
					l0.001-3.382h22.122V60.947z M74.949,55.451H52.826l0.001-3.382h22.122V55.451z"/>
			</g>
			<g>
				<polygon fill="#939598" points="67.806,86.212 68.596,86.212 80.064,74.744 80.064,73.952 67.805,73.953 				"/>
				<path fill="#939598" d="M75.273,50.281L53.151,50.28v-3.382h22.122V50.281z M47.938,41.403l0,44.809H65.55V71.698h14.513V41.403
					H47.938z M75.274,66.767H53.151v-3.382h22.123V66.767z M75.273,61.272H53.151V57.89h22.122V61.272z M75.273,55.775H53.151
					v-3.381h22.122V55.775z"/>
			</g>
			<g>
				<polygon fill="#939598" points="68.13,86.537 68.92,86.537 80.389,75.068 80.388,74.277 68.129,74.277 				"/>
				<path fill="#939598" d="M75.598,50.605l-22.123-0.001l0.001-3.381h22.122V50.605z M48.262,41.728l0,44.81l17.614-0.001l0-14.513
					l14.514-0.001l-0.001-30.295H48.262z M75.598,67.092H53.475l0.001-3.383h22.122L75.598,67.092z M75.598,61.596H53.475
					l0.001-3.381h22.122L75.598,61.596z M75.598,56.101H53.475l0.001-3.381h22.122L75.598,56.101z"/>
			</g>
			<g>
				<polygon fill="#939598" points="68.454,86.861 69.245,86.861 80.713,75.393 80.712,74.602 68.454,74.602 				"/>
				<path fill="#939598" d="M75.922,50.93L53.8,50.929v-3.381h22.123L75.922,50.93z M48.587,42.053L48.586,86.86H66.2l-0.001-14.514
					h14.514l0-30.294H48.587z M75.923,67.415H53.799l0-3.382h22.123L75.923,67.415z M75.922,61.92H53.8v-3.381h22.123V61.92z
					 M75.922,56.425H53.8v-3.382h22.123V56.425z"/>
			</g>
			<g>
				<polygon fill="#939598" points="68.779,87.186 69.57,87.186 81.038,75.717 81.037,74.926 68.778,74.926 				"/>
				<path fill="#939598" d="M76.246,51.255l-22.122-0.001v-3.382h22.122L76.246,51.255z M48.911,42.377l0,44.809l17.613-0.001
					V72.671l14.513,0.001V42.377H48.911z M76.247,67.739L54.125,67.74v-3.382h22.123V67.739z M76.247,62.245H54.125v-3.382h22.122
					V62.245z M76.247,56.749H54.125v-3.382h22.122V56.749z"/>
			</g>
			<g>
				<polygon fill="#939598" points="69.104,87.51 69.894,87.51 81.362,76.042 81.361,75.251 69.103,75.251 				"/>
				<path fill="#939598" d="M76.571,51.579l-22.122-0.001l0-3.381h22.122V51.579z M49.235,42.702l0,44.808h17.613V72.996h14.513
					V42.701L49.235,42.702z M76.572,68.064H54.449l0-3.382h22.122L76.572,68.064z M76.571,62.569H54.449l0-3.381h22.122
					L76.571,62.569z M76.571,57.074H54.449l0-3.382h22.122L76.571,57.074z"/>
			</g>
			<g>
				<polygon fill="#939598" points="69.428,87.834 70.218,87.834 81.686,76.366 81.686,75.575 69.427,75.575 				"/>
				<path fill="#939598" d="M76.896,51.903l-22.123-0.001l0-3.381h22.122V51.903z M49.56,43.025l0,44.809h17.614L67.173,73.32
					h14.513V43.025H49.56z M76.896,68.389H54.773l0-3.382h22.123L76.896,68.389z M76.896,62.894H54.773l0-3.382h22.122V62.894z
					 M76.896,57.397H54.773l0-3.381h22.122V57.397z"/>
			</g>
			<g>
				<polygon fill="#939598" points="69.752,88.159 70.543,88.159 82.011,76.69 82.011,75.899 69.752,75.899 				"/>
				<path fill="#939598" d="M77.219,52.228H55.098v-3.382H77.22L77.219,52.228z M49.885,43.351l0,44.809l17.613-0.001l0-14.514
					l14.514,0.001V43.35L49.885,43.351z M77.22,68.713l-22.123,0.001v-3.382H77.22V68.713z M77.22,63.218H55.098v-3.381H77.22
					V63.218z M77.22,57.723H55.098v-3.382H77.22V57.723z"/>
			</g>
			<g>
				<polygon fill="#939598" points="70.077,88.483 70.868,88.483 82.336,77.015 82.335,76.224 70.076,76.224 				"/>
				<path fill="#939598" d="M77.545,52.552H55.422V49.17h22.122V52.552z M50.209,43.675l0,44.809h17.613V73.97h14.513V43.675H50.209
					z M77.545,69.038H55.422v-3.382h22.122L77.545,69.038z M77.545,63.542H55.422v-3.381h22.122L77.545,63.542z M77.545,58.047
					H55.422v-3.381h22.122L77.545,58.047z"/>
			</g>
			<g>
				<polygon fill="#939598" points="70.401,88.808 71.192,88.808 82.66,77.339 82.659,76.548 70.401,76.548 				"/>
				<path fill="#939598" d="M77.869,52.877l-22.122-0.001l0-3.381h22.122L77.869,52.877z M50.534,43.999l-0.001,44.809l17.614-0.001
					l-0.001-14.513H82.66l-0.001-30.295H50.534z M77.87,69.362H55.746l0.001-3.382h22.122L77.87,69.362z M77.869,63.867H55.747
					l0-3.382h22.122V63.867z M77.869,58.371H55.747l0-3.381h22.122V58.371z"/>
			</g>
			<g>
				<polygon fill="#939598" points="70.726,89.132 71.517,89.132 82.984,77.664 82.984,76.873 70.725,76.873 				"/>
				<path fill="#939598" d="M78.193,53.201L56.071,53.2v-3.381h22.122L78.193,53.201z M50.858,44.324l0,44.808h17.613L68.47,74.618
					h14.514V44.323L50.858,44.324z M78.194,69.687H56.071v-3.381h22.123V69.687z M78.193,64.191H56.071V60.81h22.122V64.191z
					 M78.193,58.696H56.071v-3.382h22.122V58.696z"/>
			</g>
			<g>
				<polygon fill="#939598" points="71.05,89.457 71.841,89.457 83.309,77.988 83.308,77.197 71.049,77.197 				"/>
				<path fill="#939598" d="M78.518,53.525l-22.122-0.001v-3.381h22.123L78.518,53.525z M51.182,44.648v44.808h17.613V74.942h14.513
					V44.647L51.182,44.648z M78.519,70.011l-22.123,0.001V66.63h22.123L78.519,70.011z M78.518,64.516H56.396v-3.381h22.123V64.516z
					 M78.518,59.021H56.396v-3.382h22.123V59.021z"/>
			</g>
			<g>
				<polygon fill="#939598" points="71.375,89.781 72.166,89.781 83.633,78.313 83.633,77.522 71.375,77.522 				"/>
				<path fill="#939598" d="M78.842,53.851L56.72,53.85l0-3.381h22.123L78.842,53.851z M51.507,44.973l-0.001,44.809H69.12
					L69.12,75.268h14.514l-0.001-30.295H51.507z M78.843,70.336H56.72l0-3.382h22.123V70.336z M78.843,64.841H56.72l0-3.382h22.123
					V64.841z M78.843,59.345H56.72l0-3.381h22.123V59.345z"/>
			</g>
			<g>
				<polygon fill="#939598" points="71.699,90.105 72.49,90.105 83.958,78.638 83.958,77.847 71.699,77.847 				"/>
				<path fill="#939598" d="M79.166,54.175l-22.122-0.001v-3.382h22.123L79.166,54.175z M51.832,45.297l0,44.809h17.613l0-14.514
					h14.514V45.297H51.832z M79.168,70.66H57.045v-3.382h22.123V70.66z M79.167,65.165H57.045v-3.382h22.123V65.165z M79.167,59.67
					H57.045v-3.382h22.123V59.67z"/>
			</g>
			<g>
				<polygon fill="#939598" points="72.024,90.43 72.815,90.43 84.282,78.962 84.282,78.171 72.023,78.171 				"/>
				<path fill="#939598" d="M79.491,54.499l-22.122-0.001v-3.381h22.122L79.491,54.499z M52.156,45.622l0,44.808h17.613V75.916
					h14.514l0-30.295L52.156,45.622z M79.492,70.984H57.369v-3.381h22.123L79.492,70.984z M79.491,65.489H57.369v-3.382h22.122
					V65.489z M79.491,59.994H57.369v-3.382h22.122V59.994z"/>
			</g>
			<g>
				<polygon fill="#939598" points="72.348,90.755 73.139,90.755 84.607,79.286 84.606,78.495 72.348,78.495 				"/>
				<path fill="#939598" d="M79.815,54.823H57.693l0.001-3.381h22.122L79.815,54.823z M52.48,45.946v44.809h17.613l-0.001-14.514
					h14.513V45.946H52.48z M79.816,71.31H57.693l0.001-3.382h22.122L79.816,71.31z M79.816,65.814H57.693l0.001-3.382h22.122V65.814
					z M79.816,60.318H57.693l0.001-3.381h22.122V60.318z"/>
			</g>
			<g>
				<polygon fill="#939598" points="72.672,91.079 73.463,91.079 84.931,79.61 84.931,78.819 72.672,78.82 				"/>
				<path fill="#939598" d="M80.14,55.147H58.018v-3.382H80.14V55.147z M52.805,46.271l-0.001,44.809l17.614-0.001l-0.001-14.513
					l14.514-0.001V46.271H52.805z M80.141,71.634H58.017l0.001-3.382h22.123V71.634z M80.141,66.139H58.018v-3.382H80.14
					L80.141,66.139z M80.141,60.643H58.018v-3.381H80.14L80.141,60.643z"/>
			</g>
			<g>
				<polygon fill="#939598" points="72.997,91.403 73.788,91.403 85.256,79.936 85.255,79.145 72.997,79.145 				"/>
				<path fill="#939598" d="M80.464,55.473l-22.122-0.001V52.09h22.123L80.464,55.473z M53.129,46.595l0,44.809h17.613V76.89h14.514
					l0-30.295H53.129z M80.465,71.958H58.342v-3.381h22.123V71.958z M80.465,66.463H58.342v-3.382h22.123V66.463z M80.465,60.967
					H58.342v-3.381h22.123V60.967z"/>
			</g>
			<g>
				<polygon fill="#939598" points="73.322,91.729 74.112,91.729 85.58,80.26 85.58,79.469 73.321,79.469 				"/>
				<path fill="#939598" d="M80.789,55.797H58.667v-3.382h22.122V55.797z M53.454,46.92l0,44.809h17.614l-0.001-14.514H85.58V46.92
					H53.454z M80.79,72.283H58.667v-3.382h22.122L80.79,72.283z M80.79,66.787H58.667v-3.381h22.122L80.79,66.787z M80.79,61.292
					H58.667v-3.381h22.122L80.79,61.292z"/>
			</g>
			<g>
				<polygon fill="#939598" points="73.646,92.053 74.437,92.053 85.904,80.584 85.904,79.793 73.646,79.793 				"/>
				<path fill="#939598" d="M81.113,56.121L58.992,56.12v-3.381h22.122V56.121z M53.778,47.244l-0.001,44.808h17.614l-0.001-14.513
					l14.514-0.001V47.244H53.778z M81.114,72.606H58.991l0.001-3.382h22.123V72.606z M81.114,67.111H58.992V63.73h22.122
					L81.114,67.111z M81.114,61.616H58.992v-3.382h22.122L81.114,61.616z"/>
			</g>
			<g>
				<polygon fill="#939598" points="73.971,92.377 74.761,92.377 86.229,80.908 86.229,80.117 73.97,80.117 				"/>
				<path fill="#939598" d="M81.438,56.446l-22.122-0.001v-3.382h22.122V56.446z M54.103,47.568l0,44.809h17.613V77.863h14.514
					l0-30.295H54.103z M81.439,72.932H59.316V69.55h22.123L81.439,72.932z M81.438,67.437H59.316v-3.382h22.122V67.437z
					 M81.438,61.94H59.316V58.56h22.122V61.94z"/>
			</g>
			<g>
				<polygon fill="#939598" points="74.295,92.702 75.086,92.702 86.553,81.233 86.553,80.442 74.295,80.442 				"/>
				<path fill="#939598" d="M81.763,56.771L59.64,56.77l0-3.381h22.122V56.771z M54.427,47.894l0,44.809H72.04V78.188h14.513V47.893
					L54.427,47.894z M81.763,73.257H59.64l0-3.383h22.122L81.763,73.257z M81.763,67.761H59.64l0-3.381h22.122V67.761z
					 M81.763,62.266H59.64l0-3.381h22.122V62.266z"/>
			</g>
			<g>
				<polygon fill="#939598" points="74.619,93.026 75.41,93.026 86.878,81.558 86.878,80.767 74.619,80.767 				"/>
				<path fill="#939598" d="M82.087,57.095l-22.123-0.001l0.001-3.381h22.122V57.095z M54.752,48.218l-0.001,44.808h17.614
					l-0.001-14.514h14.514l0-30.294H54.752z M82.087,73.58H59.964v-3.382h22.123V73.58z M82.087,68.085H59.964l0.001-3.381h22.122
					L82.087,68.085z M82.087,62.59H59.964l0.001-3.382h22.122L82.087,62.59z"/>
			</g>
			<g>
				<polygon fill="#939598" points="74.944,93.351 75.735,93.351 87.203,81.882 87.202,81.091 74.943,81.091 				"/>
				<path fill="#939598" d="M82.411,57.419H60.29v-3.382h22.122L82.411,57.419z M55.076,48.542l0,44.809l17.613-0.001V78.836
					l14.514,0.001l-0.001-30.295H55.076z M82.413,73.904L60.29,73.905v-3.382h22.123L82.413,73.904z M82.412,68.409H60.29v-3.381
					h22.122V68.409z M82.412,62.914H60.29v-3.382h22.122V62.914z"/>
			</g>
			<g>
				<polygon fill="#939598" points="75.269,93.675 76.059,93.675 87.527,82.207 87.526,81.415 75.268,81.416 				"/>
				<path fill="#939598" d="M82.735,57.744l-22.122-0.001v-3.381h22.122L82.735,57.744z M55.4,48.867l0,44.808h17.614V79.161h14.513
					V48.866L55.4,48.867z M82.736,74.229H60.614v-3.382h22.122V74.229z M82.736,68.734H60.614v-3.381h22.122V68.734z M82.736,63.239
					H60.614v-3.382h22.122V63.239z"/>
			</g>
			<g>
				<polygon fill="#939598" points="75.593,93.999 76.383,93.999 87.851,82.531 87.851,81.74 75.592,81.74 				"/>
				<path fill="#939598" d="M83.06,58.068l-22.122-0.001l0-3.381H83.06V58.068z M55.725,49.19l0,44.809h17.613l0-14.514h14.514
					V49.19H55.725z M83.061,74.554H60.938l0-3.382h22.123L83.061,74.554z M83.061,69.059H60.938l0-3.382H83.06L83.061,69.059z
					 M83.061,63.563H60.938l0-3.381H83.06L83.061,63.563z"/>
			</g>
			<g>
				<polygon fill="#939598" points="75.918,94.324 76.708,94.324 88.176,82.855 88.176,82.064 75.917,82.064 				"/>
				<path fill="#939598" d="M83.384,58.393l-22.122-0.001v-3.381h22.123L83.384,58.393z M56.05,49.516l0,44.809l17.613-0.001V79.81
					l14.513,0.001V49.515L56.05,49.516z M83.385,74.878l-22.123,0.001v-3.382h22.123V74.878z M83.385,69.383H61.263v-3.381h22.123
					V69.383z M83.385,63.888H61.263v-3.382h22.123V63.888z"/>
			</g>
			<g>
				<polygon fill="#939598" points="76.242,94.648 77.033,94.648 88.5,83.18 88.5,82.389 76.242,82.389 				"/>
				<path fill="#939598" d="M83.709,58.717H61.587v-3.382H83.71L83.709,58.717z M56.374,49.84v44.809l17.613-0.001l-0.001-14.514
					H88.5V49.84H56.374z M83.71,75.202l-22.123,0.001v-3.382H83.71V75.202z M83.71,69.707H61.587v-3.381H83.71V69.707z
					 M83.71,64.212H61.587V60.83H83.71V64.212z"/>
			</g>
			<g>
				<polygon fill="#939598" points="76.566,94.973 77.357,94.973 88.825,83.504 88.824,82.713 76.566,82.713 				"/>
				<path fill="#939598" d="M84.034,59.042l-22.122-0.001V55.66h22.122V59.042z M56.699,50.164l-0.001,44.809h17.614l0-14.514
					h14.513V50.164H56.699z M84.035,75.527H61.911l0-3.382h22.123L84.035,75.527z M84.034,70.032H61.912V66.65h22.122L84.034,70.032
					z M84.034,64.536H61.912v-3.381h22.122L84.034,64.536z"/>
			</g>
			<g>
				<polygon fill="#939598" points="76.891,95.298 77.682,95.298 89.149,83.829 89.149,83.038 76.891,83.038 				"/>
				<path fill="#939598" d="M84.358,59.366H62.236l0-3.382h22.122L84.358,59.366z M57.024,50.489l-0.001,44.808h17.614
					l-0.001-14.514h14.514V50.488L57.024,50.489z M84.359,75.852H62.236l0-3.382h22.123L84.359,75.852z M84.359,70.356H62.236
					l0-3.381h22.122V70.356z M84.359,64.861H62.236l0-3.382h22.122V64.861z"/>
			</g>
			<g>
				<polygon fill="#939598" points="77.215,95.622 78.005,95.622 89.473,84.153 89.473,83.362 77.214,83.362 				"/>
				<path fill="#939598" d="M84.683,59.69L62.56,59.689l0-3.381h22.122V59.69z M57.347,50.814v44.808l17.613-0.001L74.96,81.107
					h14.513V50.814H57.347z M84.683,76.176L62.56,76.177l0-3.383h22.122L84.683,76.176z M84.683,70.681H62.56l0-3.381h22.122
					L84.683,70.681z M84.683,65.186H62.56l0-3.382h22.122L84.683,65.186z"/>
			</g>
			<g>
				<polygon fill="#939598" points="77.54,95.946 78.33,95.946 89.798,84.478 89.798,83.687 77.539,83.687 				"/>
				<path fill="#939598" d="M85.007,60.015H62.885l0-3.382h22.122V60.015z M57.672,51.138l-0.001,44.809h17.614l0-14.514h14.513
					V51.138H57.672z M85.008,76.501H62.885v-3.382h22.123V76.501z M85.008,71.005H62.885l0-3.381h22.122L85.008,71.005z
					 M85.008,65.51H62.885l0-3.381h22.122L85.008,65.51z"/>
			</g>
			<g>
				<polygon fill="#939598" points="77.864,96.271 78.655,96.271 90.123,84.803 90.123,84.012 77.864,84.012 				"/>
				<path fill="#939598" d="M85.332,60.34H63.21l0-3.382h22.122L85.332,60.34z M57.997,51.462l-0.001,44.81l17.614-0.001
					l-0.001-14.514h14.514V51.462H57.997z M85.333,76.825H63.21v-3.382h22.123V76.825z M85.333,71.33H63.21l0-3.381h22.122V71.33z
					 M85.333,65.835H63.21l0-3.382h22.122V65.835z"/>
			</g>
			<g>
				<polygon fill="#939598" points="78.189,96.595 78.979,96.595 90.447,85.127 90.446,84.336 78.188,84.336 				"/>
				<path fill="#939598" d="M85.656,60.664l-22.122-0.001l0-3.381h22.122V60.664z M58.32,51.787v44.808h17.613l-0.001-14.514h14.513
					V51.787H58.32z M85.657,77.149L63.534,77.15l0-3.382h22.122L85.657,77.149z M85.656,71.654H63.534l0-3.381h22.122L85.656,71.654
					z M85.656,66.159H63.534l0-3.382h22.122L85.656,66.159z"/>
			</g>
			<g>
				<polygon fill="#939598" points="78.513,96.92 79.304,96.92 90.772,85.451 90.771,84.66 78.513,84.66 				"/>
				<path fill="#939598" d="M85.981,60.988H63.858l0-3.381h22.122V60.988z M58.646,52.111l0,44.809h17.613l-0.001-14.514h14.513
					V52.111H58.646z M85.982,77.475H63.858v-3.382h22.123L85.982,77.475z M85.981,71.979H63.858l0-3.382h22.122L85.981,71.979z
					 M85.981,66.483H63.858l0-3.381h22.122L85.981,66.483z"/>
			</g>
			<g>
				<polygon fill="#939598" points="78.838,97.244 79.628,97.244 91.096,85.776 91.096,84.985 78.837,84.985 				"/>
				<path fill="#939598" d="M86.305,61.314l-22.123-0.001l0.001-3.381h22.122V61.314z M58.97,52.437v44.808h17.613V82.73h14.513
					l0-30.295L58.97,52.437z M86.306,77.799H64.183v-3.382h22.123L86.306,77.799z M86.305,72.304H64.183l0.001-3.382h22.122V72.304z
					 M86.305,66.809H64.183l0.001-3.382h22.122V66.809z"/>
			</g>
			<g>
				<polygon fill="#939598" points="79.162,97.568 79.953,97.568 91.42,86.101 91.42,85.31 79.162,85.31 				"/>
				<path fill="#939598" d="M86.629,61.638l-22.122-0.001v-3.381h22.122V61.638z M59.294,52.76v44.809h17.613l0-14.514H91.42V52.76
					H59.294z M86.63,78.123l-22.123,0.001v-3.382h22.122L86.63,78.123z M86.63,72.628H64.507v-3.381h22.122L86.63,72.628z
					 M86.63,67.132H64.507v-3.381h22.122L86.63,67.132z"/>
			</g>
			<g>
				<polygon fill="#939598" points="79.487,97.894 80.277,97.894 91.745,86.425 91.744,85.634 79.486,85.634 				"/>
				<path fill="#939598" d="M86.954,61.962H64.832V58.58h22.122V61.962z M59.619,53.085l-0.001,44.809h17.614L77.232,83.38h14.513
					V53.085H59.619z M86.955,78.448H64.832v-3.382h22.123L86.955,78.448z M86.955,72.952H64.832v-3.381h22.122L86.955,72.952z
					 M86.955,67.457H64.832v-3.381h22.122L86.955,67.457z"/>
			</g>
			<g>
				<polygon fill="#939598" points="79.812,98.218 80.602,98.218 92.07,86.749 92.069,85.958 79.811,85.958 				"/>
				<path fill="#939598" d="M87.279,62.286H65.156l0.001-3.382h22.122V62.286z M59.943,53.409v44.808h17.613V83.703h14.513
					l0.001-30.295L59.943,53.409z M87.28,78.771H65.156V75.39h22.123L87.28,78.771z M87.279,73.276H65.156l0.001-3.381h22.122
					V73.276z M87.279,67.781H65.156l0.001-3.382h22.122V67.781z"/>
			</g>
			<g>
				<polygon fill="#939598" points="80.135,98.542 80.926,98.542 92.394,87.073 92.394,86.283 80.135,86.283 				"/>
				<path fill="#939598" d="M87.603,62.611L65.481,62.61l0.001-3.381h22.122V62.611z M60.267,53.733v44.809H77.88V84.028h14.513
					V53.733H60.267z M87.604,79.097H65.481l0.001-3.382h22.122L87.604,79.097z M87.603,73.602H65.481l0.001-3.382h22.122V73.602z
					 M87.603,68.105H65.481l0.001-3.381h22.122V68.105z"/>
			</g>
			<g>
				<polygon fill="#939598" points="80.46,98.866 81.251,98.866 92.718,87.398 92.718,86.607 80.46,86.607 				"/>
				<path fill="#939598" d="M87.928,62.936l-22.123-0.001l0.001-3.381h22.122V62.936z M60.592,54.059l0,44.808h17.613V84.354h14.513
					V54.058L60.592,54.059z M87.928,79.421l-22.123,0.001v-3.383h22.123L87.928,79.421z M87.928,73.926H65.805l0.001-3.381h22.122
					V73.926z M87.928,68.431H65.805l0.001-3.382h22.122V68.431z"/>
			</g>
			<g>
				<polygon fill="#939598" points="80.785,99.191 81.575,99.191 93.044,87.723 93.043,86.932 80.784,86.932 				"/>
				<path fill="#939598" d="M88.252,63.26H66.13v-3.382h22.123L88.252,63.26z M60.917,54.383l-0.001,44.809H78.53V84.677h14.513
					l0-30.295L60.917,54.383z M88.253,79.745H66.129l0-3.382h22.123V79.745z M88.253,74.25H66.13v-3.381h22.123V74.25z
					 M88.253,68.755H66.13v-3.382h22.123V68.755z"/>
			</g>
			<g>
				<polygon fill="#939598" points="81.109,99.515 81.899,99.515 93.368,88.048 93.367,87.256 81.108,87.256 				"/>
				<path fill="#939598" d="M88.576,63.584H66.455v-3.382h22.122L88.576,63.584z M61.241,54.707v44.808h17.613l0-14.513h14.514
					l0-30.295H61.241z M88.577,80.07H66.454v-3.382h22.123L88.577,80.07z M88.576,74.575H66.455v-3.382h22.122V74.575z
					 M88.576,69.079H66.455v-3.381h22.122V69.079z"/>
			</g>
			<g>
				<polygon fill="#939598" points="81.434,99.84 82.224,99.84 93.692,88.372 93.691,87.581 81.433,87.581 				"/>
				<path fill="#939598" d="M88.9,63.909l-22.122-0.001v-3.381h22.122L88.9,63.909z M61.565,55.032l0,44.808h17.613V85.326h14.513
					V55.031L61.565,55.032z M88.902,80.395H66.779v-3.382h22.123L88.902,80.395z M88.901,74.899H66.779v-3.381h22.122L88.901,74.899
					z M88.901,69.404H66.779v-3.382h22.122L88.901,69.404z"/>
			</g>
			<g>
				<polygon fill="#939598" points="81.758,100.164 82.549,100.164 94.017,88.696 94.016,87.905 81.757,87.905 				"/>
				<path fill="#939598" d="M89.225,64.233l-22.122-0.001v-3.381h22.122L89.225,64.233z M61.89,55.356l0,44.808h17.613V85.65h14.513
					l0.001-30.295L61.89,55.356z M89.226,80.719H67.103l0.001-3.382h22.123V80.719z M89.226,75.224H67.104v-3.382h22.122
					L89.226,75.224z M89.226,69.729H67.104v-3.382h22.122L89.226,69.729z"/>
			</g>
			<g>
				<polygon fill="#939598" points="82.083,100.488 82.874,100.488 94.341,89.021 94.341,88.229 82.082,88.229 				"/>
				<path fill="#939598" d="M89.55,64.558H67.428l0-3.382H89.55V64.558z M62.215,55.681l-0.001,44.808h17.613V85.976h14.513V55.681
					H62.215z M89.551,81.044H67.428v-3.382h22.123V81.044z M89.551,75.549H67.428l0-3.382H89.55L89.551,75.549z M89.551,70.053
					H67.428l0-3.381H89.55L89.551,70.053z"/>
			</g>
			<g>
				<polygon fill="#939598" points="82.407,100.813 83.198,100.813 94.666,89.345 94.665,88.554 82.406,88.554 				"/>
				<path fill="#939598" d="M89.874,64.882H67.752V61.5h22.122L89.874,64.882z M62.539,56.005l0,44.809h17.613V86.3h14.513V56.005
					H62.539z M89.875,81.367l-22.123,0.001v-3.383h22.123V81.367z M89.875,75.872H67.752v-3.381h22.122L89.875,75.872z
					 M89.875,70.377H67.752v-3.382h22.122L89.875,70.377z"/>
			</g>
			<g>
				<polygon fill="#939598" points="82.732,101.138 83.523,101.138 94.99,89.67 94.989,88.878 82.731,88.879 				"/>
				<path fill="#939598" d="M90.199,65.207l-22.122-0.001v-3.382h22.122L90.199,65.207z M62.864,56.33l-0.001,44.808h17.614V86.624
					H94.99l0-30.295L62.864,56.33z M90.2,81.692H68.077v-3.382H90.2V81.692z M90.2,76.197H68.077v-3.382h22.122L90.2,76.197z
					 M90.2,70.702H68.077V67.32h22.122L90.2,70.702z"/>
			</g>
			<g>
				<polygon fill="#939598" points="83.056,101.462 83.847,101.462 95.315,89.994 95.314,89.203 83.056,89.203 				"/>
				<path fill="#939598" d="M90.524,65.531L68.401,65.53l0.001-3.381h22.122L90.524,65.531z M63.189,56.654l-0.001,44.808h17.614
					l-0.001-14.514h14.514V56.654H63.189z M90.524,82.017H68.401v-3.382h22.123V82.017z M90.524,76.521H68.401l0.001-3.381h22.122
					L90.524,76.521z M90.524,71.026H68.401l0.001-3.382h22.122L90.524,71.026z"/>
			</g>
			<g>
				<polygon fill="#939598" points="83.38,101.787 84.171,101.787 95.639,90.318 95.638,89.527 83.379,89.527 				"/>
				<path fill="#939598" d="M90.848,65.855l-22.122-0.001v-3.381h22.122V65.855z M63.512,56.979v44.809h17.613V87.272h14.513V56.978
					L63.512,56.979z M90.849,82.341l-22.123,0.001v-3.383h22.123L90.849,82.341z M90.848,76.846H68.726v-3.382h22.122L90.848,76.846
					z M90.848,71.351H68.726v-3.382h22.122L90.848,71.351z"/>
			</g>
			<g>
				<polygon fill="#939598" points="83.705,102.111 84.496,102.111 95.963,90.643 95.963,89.852 83.704,89.853 				"/>
				<path fill="#939598" d="M91.172,66.18H69.05v-3.382h22.123L91.172,66.18z M63.837,57.303l-0.001,44.809H81.45V87.598h14.514
					V57.303H63.837z M91.173,82.666H69.05l0.001-3.382h22.123V82.666z M91.173,77.171H69.05v-3.382h22.122L91.173,77.171z
					 M91.173,71.675H69.05v-3.381h22.122L91.173,71.675z"/>
			</g>
			<g>
				<polygon fill="#939598" points="84.029,102.436 84.82,102.436 96.288,90.968 96.288,90.177 84.029,90.177 				"/>
				<path fill="#939598" d="M91.497,66.505l-22.122-0.001v-3.381h22.122V66.505z M64.162,57.628l-0.001,44.808h17.614l-0.001-14.514
					h14.514V57.627L64.162,57.628z M91.498,82.99H69.374l0-3.382h22.123V82.99z M91.498,77.495H69.375v-3.381h22.122L91.498,77.495z
					 M91.498,72H69.375v-3.382h22.122L91.498,72z"/>
			</g>
			<g>
				<polygon fill="#939598" points="84.354,102.76 85.145,102.76 96.612,91.292 96.612,90.501 84.353,90.501 				"/>
				<path fill="#939598" d="M91.821,66.829l-22.122-0.001v-3.381h22.122L91.821,66.829z M64.486,57.952l-0.001,44.808h17.613V88.246
					h14.513V57.951L64.486,57.952z M91.822,83.314H69.699v-3.382h22.123L91.822,83.314z M91.822,77.819H69.699v-3.382h22.122
					L91.822,77.819z M91.822,72.324H69.699v-3.382h22.122L91.822,72.324z"/>
			</g>
			<g>
				<polygon fill="#939598" points="84.678,103.084 85.469,103.084 96.937,91.616 96.936,90.825 84.678,90.825 				"/>
				<path fill="#939598" d="M92.146,67.153H70.024l0-3.382l22.122,0.001V67.153z M64.81,58.276v44.808h17.613l-0.001-14.513h14.513
					V58.276H64.81z M92.147,83.639H70.023l0-3.382h22.122L92.147,83.639z M92.146,78.145H70.024l0-3.382h22.122V78.145z
					 M92.146,72.648H70.024l0-3.382h22.122V72.648z"/>
			</g>
			<g>
				<path fill="#939598" d="M92.47,67.478l-22.122-0.001v-3.381H92.47V67.478z M65.135,58.601l0,44.809h17.614l-0.001-14.514h14.514
					V58.601H65.135z M92.471,83.964H70.347l0.001-3.382h22.123V83.964z M92.471,78.469H70.348v-3.382H92.47L92.471,78.469z
					 M92.471,72.973H70.348v-3.381H92.47L92.471,72.973z"/>
			</g>
			<g>
				<path fill="#939598" d="M92.795,67.803l-22.122-0.001V64.42h22.122L92.795,67.803z M65.46,58.925l0,44.809h17.613V89.22h14.513
					V58.925H65.46z M92.795,84.288H70.672v-3.382h22.123V84.288z M92.795,78.793H70.672v-3.382h22.122L92.795,78.793z
					 M92.795,73.297H70.672v-3.381h22.122L92.795,73.297z"/>
			</g>
			<g>
				<path fill="#939598" d="M93.119,68.127H70.997l0.001-3.382h22.122V68.127z M65.784,59.25v44.808h17.613l0-14.514H97.91V59.25
					H65.784z M93.12,84.612l-22.123,0.001V81.23H93.12V84.612z M93.12,79.117H70.997l0.001-3.381H93.12V79.117z M93.12,73.622
					H70.997l0.001-3.382H93.12V73.622z"/>
			</g>
			<g>
				<path fill="#939598" d="M93.443,68.451L71.322,68.45v-3.381h22.122V68.451z M66.108,59.574l-0.001,44.808h17.614l-0.001-14.514
					h14.514V59.574H66.108z M93.444,84.937H71.321l0.001-3.382h22.123V84.937z M93.444,79.441H71.322v-3.381h22.122L93.444,79.441z
					 M93.444,73.946H71.322v-3.382h22.122L93.444,73.946z"/>
			</g>
			<g>
				<path fill="#939598" d="M93.768,68.776l-22.122-0.001v-3.382h22.122V68.776z M66.432,59.898v44.809h17.613V90.193h14.513
					l0.001-30.295H66.432z M93.769,85.262H71.646v-3.383h22.123L93.769,85.262z M93.769,79.767H71.646v-3.382h22.122L93.769,79.767z
					 M93.769,74.271H71.646V70.89h22.122L93.769,74.271z"/>
			</g>
			<g>
				<path fill="#939598" d="M94.092,69.101L71.97,69.1l0.001-3.381h22.122V69.101z M66.757,60.224v44.808H84.37V90.518h14.513
					V60.224H66.757z M94.093,85.586H71.97v-3.382h22.123L94.093,85.586z M94.093,80.091H71.97l0.001-3.382h22.122V80.091z
					 M94.093,74.596H71.97l0.001-3.382h22.122V74.596z"/>
			</g>
			<g>
				<path fill="#939598" d="M94.417,69.425l-22.122-0.001l0-3.381h22.122V69.425z M67.082,60.547l-0.001,44.809h17.614l0-14.514
					h14.513V60.547H67.082z M94.418,85.91H72.295v-3.382h22.123V85.91z M94.418,80.415H72.295l0-3.381h22.122L94.418,80.415z
					 M94.418,74.919H72.295l0-3.381h22.122L94.418,74.919z"/>
			</g>
			<g>
				<path fill="#939598" d="M94.741,69.749H72.62v-3.382h22.122L94.741,69.749z M67.406,60.872v44.809h17.613V91.166l14.513,0.001
					l0-30.295H67.406z M94.743,86.234L72.62,86.235v-3.383h22.123L94.743,86.234z M94.742,80.739H72.62v-3.381h22.122L94.742,80.739
					z M94.742,75.244H72.62v-3.382h22.122L94.742,75.244z"/>
			</g>
			<g>
				<path fill="#939598" d="M95.065,70.074l-22.121-0.001v-3.381h22.121V70.074z M67.731,61.197v44.807h17.613l-0.001-14.513h14.514
					V61.197H67.731z M95.066,86.56H72.944v-3.382h22.122V86.56z M95.066,81.064H72.944v-3.382h22.122V81.064z M95.066,75.569H72.944
					v-3.382h22.121L95.066,75.569z"/>
			</g>
			<g>
				<path fill="#939598" d="M95.39,70.397H73.268l0.001-3.381H95.39V70.397z M68.055,61.521l0,44.809h17.613l-0.001-14.514h14.514
					V61.521H68.055z M95.391,86.884H73.268l0-3.382h22.123L95.391,86.884z M95.391,81.389H73.268l0.001-3.382H95.39L95.391,81.389z
					 M95.391,75.893H73.268l0.001-3.381H95.39L95.391,75.893z"/>
			</g>
			<g>
				<path fill="#939598" d="M95.715,70.723l-22.123-0.001l0.001-3.381h22.122V70.723z M68.379,61.846v44.809h17.613V92.14h14.513
					l0-30.295L68.379,61.846z M95.716,87.208H73.592l0-3.382h22.123L95.716,87.208z M95.716,81.713H73.592l0.001-3.381h22.122
					L95.716,81.713z M95.716,76.217H73.592l0.001-3.381h22.122L95.716,76.217z"/>
			</g>
			<g>
				<path fill="#939598" d="M96.039,71.047l-22.122-0.001v-3.381h22.122V71.047z M68.704,62.17v44.808h17.613l-0.001-14.514h14.514
					V62.17H68.704z M96.04,87.532l-22.123,0.001V84.15H96.04V87.532z M96.04,82.037H73.917v-3.381H96.04V82.037z M96.04,76.542
					H73.917V73.16l22.122,0.001L96.04,76.542z"/>
			</g>
			<g>
				<path fill="#939598" d="M96.364,71.372l-22.122-0.001V67.99h22.122V71.372z M69.029,62.495l-0.001,44.808h17.613l-0.001-14.514
					h14.513V62.494L69.029,62.495z M96.365,87.857H74.241l0.001-3.382h22.123L96.365,87.857z M96.364,82.362H74.242v-3.381h22.122
					L96.364,82.362z M96.364,76.866H74.242v-3.381h22.122L96.364,76.866z"/>
			</g>
			<g>
				<path fill="#939598" d="M96.689,71.696l-22.123-0.001l0.001-3.381h22.122L96.689,71.696z M69.353,62.819l0,44.808h17.614
					l-0.001-14.514h14.513l0.001-30.295L69.353,62.819z M96.69,88.182H74.566l0-3.382h22.123L96.69,88.182z M96.69,82.687H74.566
					l0.001-3.381h22.122L96.69,82.687z M96.689,77.191H74.566l0.001-3.382h22.122V77.191z"/>
			</g>
			<g>
				<path fill="#939598" d="M97.013,72.021L74.89,72.02l0-3.381l22.122,0.001V72.021z M69.677,63.144v44.808H87.29V93.438h14.513
					V63.144H69.677z M97.013,88.507H74.89v-3.383h22.123L97.013,88.507z M97.013,83.012H74.89l0-3.382h22.122V83.012z
					 M97.013,77.516H74.89l0-3.381h22.122V77.516z"/>
			</g>
			<g>
				<path fill="#939598" d="M97.337,72.345H75.215l0-3.382h22.122V72.345z M70.002,63.468v44.809h17.613V93.763h14.513V63.468
					H70.002z M97.338,88.831H75.214l0-3.382h22.122L97.338,88.831z M97.337,83.335H75.215l0-3.381h22.122V83.335z M97.338,77.84
					H75.215l0-3.381h22.122L97.338,77.84z"/>
			</g>
			<g>
				<path fill="#939598" d="M97.662,72.67L75.54,72.669l0.001-3.381h22.122V72.67z M70.326,63.793v44.808H87.94V94.087h14.513
					l0.001-30.295L70.326,63.793z M97.663,89.155H75.54v-3.382h22.123L97.663,89.155z M97.663,83.66H75.54l0.001-3.381h22.122
					L97.663,83.66z M97.662,78.165L75.54,78.164l0.001-3.381h22.122V78.165z"/>
			</g>
			<g>
				<path fill="#939598" d="M97.986,72.994l-22.122-0.001l0-3.381h22.122V72.994z M70.65,64.117v44.808h17.613V94.411l14.513,0.001
					V64.117H70.65z M97.987,89.479L75.864,89.48v-3.383h22.122L97.987,89.479z M97.986,83.984H75.864l0-3.381h22.122L97.986,83.984z
					 M97.986,78.489H75.864l0-3.382l22.122,0.001L97.986,78.489z"/>
			</g>
			<g>
				<path fill="#939598" d="M98.311,73.318H76.189l0-3.382h22.122V73.318z M70.975,64.441l0,44.808h17.614l-0.001-14.513h14.513
					V64.441H70.975z M98.312,89.805H76.188l0.001-3.382h22.123L98.312,89.805z M98.311,84.309H76.189l0-3.381h22.122L98.311,84.309z
					 M98.312,78.813H76.189l0-3.381h22.122L98.312,78.813z"/>
			</g>
			<g>
				<path fill="#939598" d="M98.635,73.643l-22.123-0.001l0.001-3.381h22.122V73.643z M71.299,64.766v44.809h17.613V95.061h14.513
					l0.001-30.296L71.299,64.766z M98.636,90.129H76.513v-3.383h22.123L98.636,90.129z M98.636,84.633H76.513l0.001-3.381h22.122
					L98.636,84.633z M98.635,79.138H76.513l0.001-3.381h22.122V79.138z"/>
			</g>
			<g>
				<path fill="#939598" d="M98.96,73.968l-22.123-0.001l0.001-3.381H98.96V73.968z M71.624,65.091v44.808h17.613V95.385
					l14.513,0.001V65.09L71.624,65.091z M98.96,90.453l-22.123,0.001v-3.383H98.96V90.453z M98.96,84.958H76.837l0.001-3.382
					l22.122,0.001L98.96,84.958z M98.96,79.462H76.837l0.001-3.381l22.122,0.001L98.96,79.462z"/>
			</g>
			<g>
				<path fill="#939598" d="M99.284,74.292H77.162l0.001-3.382h22.122V74.292z M71.949,65.415l0,44.808h17.614l0-14.513h14.513
					V65.415H71.949z M99.285,90.778H77.162v-3.382h22.123V90.778z M99.285,85.282H77.162l0.001-3.381h22.122L99.285,85.282z
					 M99.285,79.787H77.162l0.001-3.381h22.122L99.285,79.787z"/>
			</g>
			<g>
				<path fill="#939598" d="M99.608,74.616l-22.122-0.001l0.001-3.381h22.123L99.608,74.616z M72.274,65.739l-0.001,44.809h17.614
					V96.034l14.513-0.001l0.001-30.295L72.274,65.739z M99.609,91.102H77.486l0.001-3.382h22.123V91.102z M99.609,85.606H77.486
					l0.001-3.381h22.123V85.606z M99.609,80.111H77.486l0.001-3.382h22.123V80.111z"/>
			</g>
			<g>
				<path fill="#939598" d="M99.933,74.941L77.811,74.94l0-3.381h22.122V74.941z M72.597,66.064v44.807H90.21V96.358h14.513V66.063
					L72.597,66.064z M99.934,91.427H77.811v-3.382h22.122L99.934,91.427z M99.933,85.932H77.811l0-3.382l22.122,0.001L99.933,85.932
					z M99.933,80.436H77.811l0-3.381h22.122L99.933,80.436z"/>
			</g>
			<g>
				<path fill="#939598" d="M100.257,75.266l-22.122-0.001v-3.381h22.122V75.266z M72.922,66.389v44.808h17.613V96.684h14.514
					V66.388L72.922,66.389z M100.258,91.751H78.135l0.001-3.382h22.122L100.258,91.751z M100.258,86.256H78.135v-3.381h22.122
					L100.258,86.256z M100.258,80.76l-22.123,0.001v-3.382h22.122L100.258,80.76z"/>
			</g>
			<g>
				<path fill="#939598" d="M100.582,75.59L78.46,75.589l0.001-3.381l22.122-0.001L100.582,75.59z M73.247,66.713l-0.001,44.809
					H90.86V97.008l14.513-0.001l0.001-30.295L73.247,66.713z M100.583,92.075H78.46l0.001-3.382h22.122V92.075z M100.583,86.58
					H78.46l0.001-3.381l22.122-0.001V86.58z M100.583,81.085L78.46,81.084l0.001-3.381h22.122V81.085z"/>
			</g>
			<g>
				<path fill="#939598" d="M100.906,75.914H78.784v-3.382h22.122V75.914z M73.571,67.037v44.808h17.613V97.332h14.513V67.037
					H73.571z M100.907,92.4H78.784v-3.382h22.123L100.907,92.4z M100.907,86.904H78.784v-3.381l22.122,0.001L100.907,86.904z
					 M100.907,81.409H78.784v-3.381h22.122L100.907,81.409z"/>
			</g>
			<g>
				<path fill="#939598" d="M101.231,76.239l-22.122-0.001v-3.381h22.122V76.239z M73.895,67.362v44.808h17.613V97.656h14.513
					l0.001-30.295L73.895,67.362z M101.232,92.725H79.109v-3.382h22.123L101.232,92.725z M101.232,87.229l-22.123,0.001v-3.381
					h22.122L101.232,87.229z M101.232,81.733l-22.123,0.001v-3.382h22.122L101.232,81.733z"/>
			</g>
			<g>
				<path fill="#939598" d="M101.555,76.563l-22.122-0.001v-3.381l22.123-0.001L101.555,76.563z M74.22,67.687v44.808h17.613V97.98
					h14.513l0-30.295L74.22,67.687z M101.556,93.049H79.433v-3.382h22.123V93.049z M101.556,87.554H79.433v-3.382h22.123V87.554z
					 M101.556,82.059H79.433v-3.382h22.123V82.059z"/>
			</g>
			<g>
				<path fill="#939598" d="M101.88,76.888l-22.123-0.001l0.001-3.381h22.122V76.888z M74.545,68.011l0,44.808h17.613V98.306h14.513
					l0.001-30.295H74.545z M101.881,93.374H79.758v-3.383h22.123V93.374z M101.881,87.878H79.758l0.001-3.381h22.122L101.881,87.878
					z M101.881,82.383H79.758l0.001-3.381h22.122L101.881,82.383z"/>
			</g>
			<g>
				<path fill="#939598" d="M102.205,77.212H80.082V73.83h22.123V77.212z M74.869,68.335v44.809h17.613V98.63h14.513l0-30.295
					H74.869z M102.205,93.697l-22.123,0.001v-3.383h22.123L102.205,93.697z M102.205,88.202H80.082v-3.381h22.123L102.205,88.202z
					 M102.205,82.707H80.082v-3.382h22.123L102.205,82.707z"/>
			</g>
			<g>
				<path fill="#939598" d="M102.528,77.537l-22.121-0.001v-3.382h22.122L102.528,77.537z M75.193,68.659l0,44.808h17.613V98.954
					h14.513l0-30.295H75.193z M102.529,94.022H80.406V90.64h22.123V94.022z M102.529,88.527H80.407v-3.382h22.122V88.527z
					 M102.529,83.031H80.407V79.65l22.122-0.001V83.031z"/>
			</g>
			<g>
				<path fill="#939598" d="M102.854,77.861L80.732,77.86v-3.381h22.122V77.861z M75.519,68.984l-0.001,44.808h17.614l-0.001-14.514
					h14.513l0-30.294H75.519z M102.855,94.347H80.732v-3.382l22.123-0.001V94.347z M102.855,88.852H80.732v-3.381h22.122
					L102.855,88.852z M102.855,83.356H80.732v-3.382h22.122L102.855,83.356z"/>
			</g>
			<g>
				<path fill="#939598" d="M103.178,78.186l-22.122-0.001v-3.381h22.122V78.186z M75.842,69.309v44.808h17.613V99.604h14.513
					V69.308L75.842,69.309z M103.179,94.671H81.056l-0.001-3.382h22.123L103.179,94.671z M103.179,89.176H81.056v-3.382h22.122
					L103.179,89.176z M103.179,83.68l-22.123,0.001v-3.382h22.122L103.179,83.68z"/>
			</g>
			<g>
				<path fill="#939598" d="M103.502,78.51H81.38v-3.382h22.123L103.502,78.51z M76.167,69.633l-0.001,44.809H93.78V99.928h14.513
					l0-30.296L76.167,69.633z M103.503,94.996H81.379v-3.383h22.123V94.996z M103.503,89.501H81.38v-3.382h22.123V89.501z
					 M103.503,84.005H81.38v-3.381l22.123-0.001V84.005z"/>
			</g>
			<g>
				<path fill="#939598" d="M103.827,78.834H81.704l0.001-3.381h22.122V78.834z M76.492,69.957l-0.001,44.809h17.614l0-14.514
					h14.513V69.957H76.492z M103.828,95.32H81.704l0-3.382l22.123-0.001V95.32z M103.828,89.825H81.704l0.001-3.381h22.122
					L103.828,89.825z M103.828,84.329H81.704l0.001-3.381h22.122L103.828,84.329z"/>
			</g>
			<g>
				<path fill="#939598" d="M104.151,79.158H82.029v-3.381h22.122V79.158z M76.815,70.282v44.808h17.613v-14.514h14.513l0-30.295
					L76.815,70.282z M104.152,95.645H82.029l0-3.382h22.123V95.645z M104.152,90.149H82.029v-3.382h22.122L104.152,90.149z
					 M104.152,84.653l-22.123,0.001v-3.382h22.122L104.152,84.653z"/>
			</g>
			<g>
				<path fill="#939598" d="M104.476,79.483H82.354l0-3.382h22.122V79.483z M77.14,70.606v44.808h17.613l0-14.514h14.513V70.606
					H77.14z M104.476,95.969H82.353v-3.382h22.124L104.476,95.969z M104.476,90.474H82.354l0-3.381h22.122L104.476,90.474z
					 M104.476,84.979H82.354l0-3.382l22.122,0.001L104.476,84.979z"/>
			</g>
			<g>
				<path fill="#939598" d="M104.8,79.808l-22.123-0.001l0.001-3.381H104.8V79.808z M77.465,70.931l-0.001,44.809h17.614l0-14.514
					h14.513l0-30.295H77.465z M104.801,96.294H82.678l0-3.383h22.123V96.294z M104.801,90.798H82.678l0.001-3.381H104.8
					L104.801,90.798z M104.801,85.303H82.678l0.001-3.381H104.8L104.801,85.303z"/>
			</g>
			<g>
				<path fill="#939598" d="M105.125,80.132H83.003V76.75h22.122V80.132z M77.789,71.255v44.809h17.613V101.55h14.513l0-30.295
					H77.789z M105.126,96.618H83.003l-0.001-3.382h22.123L105.126,96.618z M105.126,91.122l-22.123,0.001v-3.382h22.122
					L105.126,91.122z M105.126,85.627H83.003v-3.381h22.122L105.126,85.627z"/>
			</g>
			<g>
				<path fill="#939598" d="M105.449,80.457H83.327l0-3.382h22.122V80.457z M78.114,71.58v44.808h17.613v-14.514h14.513V71.58
					H78.114z M105.45,96.942H83.327v-3.382h22.123V96.942z M105.45,91.447H83.327l0-3.381h22.122L105.45,91.447z M105.45,85.952
					H83.327l0-3.382l22.122,0.001L105.45,85.952z"/>
			</g>
			<g>
				<path fill="#939598" d="M105.774,80.781L83.651,80.78l0.001-3.381h22.122V80.781z M78.439,71.904l-0.001,44.808h17.614l0-14.514
					h14.513l0.001-30.294H78.439z M105.775,97.267H83.651l0.001-3.382l22.123-0.001V97.267z M105.775,91.771H83.651l0.001-3.381
					h22.122L105.775,91.771z M105.775,86.276H83.651l0.001-3.382h22.122L105.775,86.276z"/>
			</g>
			<g>
				<path fill="#939598" d="M106.098,81.105H83.976v-3.382h22.122V81.105z M78.762,72.229v44.809h17.613v-14.514h14.513
					l0.001-30.295H78.762z M106.099,97.592H83.976l0-3.383h22.123L106.099,97.592z M106.099,92.096l-22.123,0.001v-3.382h22.122
					L106.099,92.096z M106.099,86.601H83.976V83.22h22.122L106.099,86.601z"/>
			</g>
			<g>
				<path fill="#939598" d="M106.422,81.431L84.3,81.43v-3.381h22.122V81.431z M79.087,72.554v44.808H96.7v-14.514h14.514V72.554
					H79.087z M106.423,97.916H84.299v-3.382h22.124V97.916z M106.423,92.421H84.3v-3.382l22.122,0.001L106.423,92.421z
					 M106.423,86.926H84.3v-3.382h22.122L106.423,86.926z"/>
			</g>
			<g>
				<path fill="#939598" d="M106.747,81.754H84.625l0.001-3.381h22.122V81.754z M79.412,72.878v44.808h17.613l0-14.514h14.513
					l0-30.295L79.412,72.878z M106.748,98.24H84.625v-3.383h22.123V98.24z M106.748,92.745H84.625l0.001-3.381h22.122
					L106.748,92.745z M106.748,87.249H84.625l0.001-3.381h22.122L106.748,87.249z"/>
			</g>
			<g>
				<path fill="#939598" d="M107.072,82.079H84.949v-3.382h22.123V82.079z M79.736,73.202v44.809h17.613v-14.514h14.513l0-30.295
					H79.736z M107.072,98.565H84.949v-3.383h22.123L107.072,98.565z M107.072,93.069H84.949v-3.381h22.123L107.072,93.069z
					 M107.072,87.574H84.949v-3.382h22.123L107.072,87.574z"/>
			</g>
			<g>
				<path fill="#939598" d="M107.396,82.403l-22.122-0.001v-3.381h22.122V82.403z M80.061,73.526v44.808h17.613V103.82h14.513
					V73.526H80.061z M107.397,98.889H85.274v-3.382h22.123L107.397,98.889z M107.397,93.394H85.274v-3.381h22.122L107.397,93.394z
					 M107.397,87.898H85.274v-3.382l22.122,0.001L107.397,87.898z"/>
			</g>
			<g>
				<path fill="#939598" d="M107.72,82.728l-22.122-0.001l0.001-3.38h22.122V82.728z M80.385,73.852v44.808h17.613l-0.001-14.514
					h14.513V73.851L80.385,73.852z M107.721,99.214H85.598l0-3.383h22.123V99.214z M107.721,93.719H85.598l0.001-3.382h22.122
					L107.721,93.719z M107.721,88.223H85.598l0.001-3.381h22.122L107.721,88.223z"/>
			</g>
			<g>
				<path fill="#939598" d="M108.045,83.053l-22.123-0.001l0.001-3.381h22.122V83.053z M80.71,74.176v44.808h17.613l-0.001-14.513
					l14.513-0.001l0.001-30.295L80.71,74.176z M108.046,99.538l-22.124,0.001v-3.383h22.123L108.046,99.538z M108.046,94.043H85.922
					l0.001-3.381h22.122L108.046,94.043z M108.046,88.547l-22.124,0.001l0.001-3.381h22.122L108.046,88.547z"/>
			</g>
			<g>
				<path fill="#939598" d="M108.37,83.377H86.247l0.001-3.381h22.122V83.377z M81.034,74.5v44.808h17.613v-14.514h14.513V74.5
					H81.034z M108.37,99.862H86.247v-3.381h22.123L108.37,99.862z M108.37,94.368H86.247l0-3.382h22.122V94.368z M108.37,88.872
					H86.247l0-3.381h22.122V88.872z"/>
			</g>
			<g>
				<path fill="#939598" d="M108.694,83.701H86.571l0.001-3.381h22.122V83.701z M81.358,74.825v44.808h17.613l-0.001-14.514h14.513
					l0.001-30.295L81.358,74.825z M108.695,100.188H86.571l0.001-3.383h22.123V100.188z M108.695,94.692H86.571l0.001-3.381h22.122
					L108.695,94.692z M108.695,89.196H86.571l0.001-3.381h22.122L108.695,89.196z"/>
			</g>
			<g>
				<path fill="#939598" d="M109.019,84.026l-22.123-0.001l0.001-3.381h22.122V84.026z M81.683,75.149v44.808h17.613v-14.514h14.513
					l0.001-30.295L81.683,75.149z M109.02,100.512H86.896V97.13h22.123L109.02,100.512z M109.019,95.017H86.896l0.001-3.381h22.122
					V95.017z M109.019,89.521H86.896l0.001-3.382h22.122V89.521z"/>
			</g>
			<g>
				<path fill="#939598" d="M109.343,84.351H87.22l0.001-3.382h22.122V84.351z M82.007,75.474v44.808H99.62v-14.514h14.513V75.474
					H82.007z M109.343,100.836H87.22v-3.382h22.124L109.343,100.836z M109.343,95.341H87.221l0-3.381h22.122L109.343,95.341z
					 M109.343,89.846H87.221l0-3.382l22.122,0.001L109.343,89.846z"/>
			</g>
			<g>
				<path fill="#939598" d="M109.668,84.675l-22.123-0.001l0.001-3.38h22.122V84.675z M82.332,75.799v44.808h17.613v-14.514h14.513
					V75.798L82.332,75.799z M109.669,101.161H87.545l0-3.383h22.123V101.161z M109.669,95.666H87.545l0.001-3.382h22.122
					L109.669,95.666z M109.669,90.17H87.545l0.001-3.381h22.122L109.669,90.17z"/>
			</g>
			<g>
				<path fill="#939598" d="M109.992,84.999l-22.123-0.001l0.001-3.381h22.122V84.999z M82.656,76.122v44.809h17.613v-14.514
					l14.513-0.001l0.001-30.294H82.656z M109.993,101.484l-22.124,0.001v-3.383h22.123L109.993,101.484z M109.992,95.99H87.869
					l0.001-3.382h22.122V95.99z M109.992,90.494H87.869l0.001-3.381h22.122V90.494z"/>
			</g>
			<g>
				<path fill="#939598" d="M110.316,85.324H88.194v-3.382h22.122V85.324z M82.981,76.447v44.808h17.613v-14.514h14.513V76.447
					H82.981z M110.317,101.81H88.194v-3.382h22.123V101.81z M110.317,96.314H88.194l0-3.381h22.122L110.317,96.314z M110.317,90.819
					H88.194v-3.381h22.122L110.317,90.819z"/>
			</g>
			<g>
				<path fill="#939598" d="M110.641,85.648l-22.122-0.001l0-3.381h22.122V85.648z M83.305,76.771v44.808h17.613v-14.514h14.513
					l0.001-30.294H83.305z M110.642,102.134H88.519l0-3.382h22.123V102.134z M110.642,96.639H88.519l0-3.381h22.122L110.642,96.639z
					 M110.642,91.144H88.519l0-3.381h22.122L110.642,91.144z"/>
			</g>
			<g>
				<path fill="#939598" d="M110.965,85.973l-22.122-0.001l0.001-3.381h22.122L110.965,85.973z M83.629,77.096v44.809h17.613
					v-14.514l14.513-0.001l0-30.295L83.629,77.096z M110.966,102.458l-22.123,0.001v-3.383h22.123L110.966,102.458z M110.965,96.964
					H88.842l0-3.382h22.123V96.964z M110.965,91.468H88.842l0.001-3.382h22.122V91.468z"/>
			</g>
			<g>
				<path fill="#939598" d="M111.29,86.298l-22.123-0.001l0-3.381h22.122V86.298z M83.954,77.421l0,44.808h17.612v-14.514
					l14.513,0.001l0-30.296L83.954,77.421z M111.29,102.783H89.168l0-3.382h22.123L111.29,102.783z M111.29,97.288H89.168
					l0.001-3.382l22.122,0.001L111.29,97.288z M111.29,91.792H89.168v-3.381h22.122L111.29,91.792z"/>
			</g>
			<g>
				<path fill="#939598" d="M111.614,86.622l-22.123-0.001l0-3.381h22.122V86.622z M84.278,77.745v44.808h17.613v-14.514h14.513
					l0.001-30.295L84.278,77.745z M111.615,103.107H89.492l0-3.383h22.123V103.107z M111.615,97.612H89.492l0-3.381h22.122
					L111.615,97.612z M111.615,92.116H89.492l0-3.381h22.122L111.615,92.116z"/>
			</g>
			<g>
				<path fill="#939598" d="M111.938,86.946l-22.122-0.001l0.001-3.381h22.122L111.938,86.946z M84.603,78.069l0,44.809h17.613
					v-14.514l14.513-0.001l0.001-30.295L84.603,78.069z M111.94,103.432l-22.124,0.001v-3.383h22.123L111.94,103.432z
					 M111.939,97.937H89.816l0.001-3.381l22.123-0.001V97.937z M111.939,92.441H89.816l0.001-3.382h22.122V92.441z"/>
			</g>
			<g>
				<path fill="#939598" d="M112.263,87.271l-22.122-0.001V83.89h22.122V87.271z M84.927,78.395l0,44.807h17.613v-14.513h14.512
					l0.001-30.295L84.927,78.395z M112.264,103.756H90.141v-3.382h22.123V103.756z M112.264,98.262H90.141V94.88h22.122
					L112.264,98.262z M112.264,92.766l-22.123,0.001v-3.382h22.122L112.264,92.766z"/>
			</g>
			<g>
				<path fill="#939598" d="M112.587,87.595l-22.122-0.001l0.001-3.381h22.122V87.595z M85.252,78.719v44.808h17.613v-14.514h14.513
					l0-30.295L85.252,78.719z M112.588,104.081H90.465l0.001-3.383h22.123V104.081z M112.588,98.586H90.465l0.001-3.382h22.122
					L112.588,98.586z M112.588,93.09H90.465l0.001-3.381h22.122L112.588,93.09z"/>
			</g>
			<g>
				<path fill="#939598" d="M112.912,87.92L90.79,87.919l0.001-3.382h22.122L112.912,87.92z M85.577,79.043l-0.001,44.809
					l17.613-0.001v-14.513l14.513-0.001l0.001-30.295L85.577,79.043z M112.913,104.405H90.79v-3.383l22.123,0.001V104.405z
					 M112.913,98.91L90.79,98.909v-3.38l22.123-0.001V98.91z M112.913,93.415L90.79,93.414l0.001-3.381h22.122V93.415z"/>
			</g>
			<g>
				<path fill="#939598" d="M113.237,88.244H91.114l0.001-3.382h22.122V88.244z M85.901,79.368l0,44.807h17.613v-14.514
					l14.513,0.001l0-30.295L85.901,79.368z M113.237,104.729H91.115l-0.001-3.383h22.123V104.729z M113.237,99.234H91.115v-3.381
					h22.122L113.237,99.234z M113.237,93.739H91.114l0.001-3.381h22.122L113.237,93.739z"/>
			</g>
			<g>
				<path fill="#939598" d="M113.561,88.568l-22.123-0.001l0-3.381h22.122V88.568z M86.225,79.691V124.5h17.613v-14.514h14.513
					l0.001-30.295H86.225z M113.562,105.055H91.439l0-3.383h22.123V105.055z M113.562,99.559H91.439l0-3.381h22.122L113.562,99.559z
					 M113.562,94.063H91.439l0-3.382h22.122L113.562,94.063z"/>
			</g>
			<g>
				<path fill="#939598" d="M113.885,88.894l-22.122-0.002l0.001-3.381h22.122L113.885,88.894z M86.55,80.017l0,44.808h17.613
					v-14.514h14.513l0.001-30.295L86.55,80.017z M113.886,105.379H91.763v-3.383h22.123L113.886,105.379z M113.886,99.884
					l-22.123-0.001l0.001-3.381h22.122V99.884z M113.886,94.389l-22.123-0.001l0.001-3.381h22.122V94.389z"/>
			</g>
			<g>
				<path fill="#939598" d="M114.21,89.218l-22.123-0.001l0.001-3.381h22.122V89.218z M86.875,80.341v44.808h17.613l-0.001-14.514
					h14.513V80.341H86.875z M114.211,105.703H92.087v-3.383h22.124V105.703z M114.211,100.208H92.087l0.001-3.381h22.122
					L114.211,100.208z M114.211,94.713H92.087l0.001-3.382h22.122L114.211,94.713z"/>
			</g>
			<g>
				<path fill="#939598" d="M114.535,89.542l-22.123-0.001l0.001-3.381h22.123V89.542z M87.199,80.665v44.809h17.613V110.96h14.513
					l0-30.296L87.199,80.665z M114.535,106.028H92.412l0.001-3.383h22.123V106.028z M114.535,100.532H92.412l0.001-3.381h22.123
					L114.535,100.532z M114.535,95.036H92.412l0.001-3.381h22.123L114.535,95.036z"/>
			</g>
			<g>
				<path fill="#939598" d="M114.858,89.866l-22.122-0.001v-3.381h22.123L114.858,89.866z M87.524,80.989l-0.001,44.809h17.613
					v-14.515h14.513l0.001-30.294H87.524z M114.86,106.352H92.736v-3.383l22.123,0.001L114.86,106.352z M114.859,100.857
					l-22.123-0.001l0.001-3.381h22.123V100.857z M114.859,95.361H92.737v-3.382h22.123V95.361z"/>
			</g>
			<g>
				<path fill="#939598" d="M115.184,90.19H93.061l0-3.381h22.122V90.19z M87.848,81.314l0,44.808h17.614l0-14.514h14.513
					l0.001-30.295L87.848,81.314z M115.185,106.677H93.061v-3.383h22.124V106.677z M115.185,101.182H93.061l0-3.382h22.122
					L115.185,101.182z M115.185,95.686H93.061l0-3.381h22.122L115.185,95.686z"/>
			</g>
			<g>
				<path fill="#939598" d="M115.508,90.515H93.385l0-3.381h22.122V90.515z M88.172,81.639v44.808h17.613v-14.514h14.513V81.638
					L88.172,81.639z M115.509,107.001H93.385l0-3.382h22.123V107.001z M115.509,101.506H93.385l0-3.381h22.122L115.509,101.506z
					 M115.509,96.011H93.385l0-3.382h22.122L115.509,96.011z"/>
			</g>
			<g>
				<path fill="#939598" d="M115.832,90.84L93.71,90.839l0-3.381h22.122L115.832,90.84z M88.497,81.963v44.809h17.613v-14.515
					h14.513l0.001-30.295L88.497,81.963z M115.833,107.325H93.71v-3.383l22.123,0.001L115.833,107.325z M115.833,101.831
					L93.71,101.83l0.001-3.381h22.122V101.831z M115.833,96.335L93.71,96.334l0-3.381h22.122V96.335z"/>
			</g>
			<g>
				<path fill="#939598" d="M116.157,91.164H94.034l0.001-3.382h22.122V91.164z M88.821,82.287v44.809h17.613l-0.001-14.514h14.513
					l0-30.295H88.821z M116.157,107.65H94.034v-3.383h22.123V107.65z M116.157,102.154H94.034l0.001-3.381h22.122L116.157,102.154z
					 M116.157,96.659H94.034l0.001-3.381h22.122L116.157,96.659z"/>
			</g>
			<g>
				<path fill="#939598" d="M116.482,91.488H94.359v-3.382h22.123V91.488z M89.146,82.612v44.808h17.613v-14.514h14.513l0-30.295
					L89.146,82.612z M116.482,107.975H94.359v-3.383h22.123V107.975z M116.482,102.479H94.359v-3.381h22.123L116.482,102.479z
					 M116.482,96.983H94.359v-3.381h22.123L116.482,96.983z"/>
			</g>
			<g>
				<path fill="#939598" d="M116.806,91.813H94.683l0.001-3.382h22.122V91.813z M89.47,82.937v44.808h17.613l-0.001-14.514h14.514
					V82.937H89.47z M116.806,108.299H94.683v-3.383h22.123V108.299z M116.806,102.804H94.683l0.001-3.382h22.122L116.806,102.804z
					 M116.806,97.309H94.683l0.001-3.381h22.122L116.806,97.309z"/>
			</g>
			<g>
				<path fill="#939598" d="M117.13,92.138l-22.123-0.001l0.001-3.381h22.122V92.138z M89.795,83.261v44.808h17.613v-14.513h14.513
					V83.261H89.795z M117.131,108.624H95.007v-3.383h22.124V108.624z M117.131,103.128H95.007l0.001-3.381h22.122L117.131,103.128z
					 M117.131,97.633H95.007l0.001-3.381h22.122L117.131,97.633z"/>
			</g>
			<g>
				<path fill="#939598" d="M117.455,92.462H95.332l0-3.382h22.122V92.462z M90.119,83.585v44.81h17.613V113.88h14.513l0.001-30.295
					H90.119z M117.455,108.948H95.332v-3.383h22.124L117.455,108.948z M117.455,103.453H95.332l0-3.382h22.122L117.455,103.453z
					 M117.455,97.956l-22.123,0.001l0-3.381h22.122L117.455,97.956z"/>
			</g>
			<g>
				<path fill="#939598" d="M117.779,92.786H95.657v-3.381h22.122V92.786z M90.444,83.909v44.808h17.613l-0.001-14.514h14.514
					V83.909H90.444z M117.78,109.272H95.657v-3.383h22.123V109.272z M117.78,103.776H95.657v-3.381h22.122L117.78,103.776z
					 M117.78,98.281H95.657V94.9h22.122L117.78,98.281z"/>
			</g>
			<g>
				<path fill="#939598" d="M118.104,93.111L95.981,93.11l0.001-3.381h22.122V93.111z M90.768,84.234v44.809h17.613v-14.515h14.513
					l0-30.294H90.768z M118.105,109.597H95.981v-3.383h22.124V109.597z M118.105,104.102H95.981l0.001-3.381h22.122L118.105,104.102
					z M118.105,98.606H95.981l0.001-3.382h22.122L118.105,98.606z"/>
			</g>
		</g>
	</g>
	<g>
		<path fill="#EEEFEC" d="M30.416,23.882V68.69h17.613V54.177h14.513V23.882H30.416z M57.752,49.245H35.629v-3.382h22.122V49.245z
			 M57.752,43.75H35.629v-3.382h22.122V43.75z M57.752,38.255H35.629v-3.382h22.122V38.255z M57.752,32.76H35.629v-3.382h22.122
			V32.76z"/>
	</g>
	<g>
		<g>
			<path fill="#EEEFEC" d="M62.56,79.165c-5.775,0-10.475-4.699-10.475-10.475s4.7-10.475,10.475-10.475
				c5.776,0,10.475,4.699,10.475,10.475S68.336,79.165,62.56,79.165L62.56,79.165z M62.56,59.625c-4.998,0-9.066,4.067-9.066,9.066
				c0,4.999,4.067,9.066,9.066,9.066c4.999,0,9.066-4.067,9.066-9.066C71.626,63.692,67.559,59.625,62.56,59.625L62.56,59.625z"/>
		</g>
		<polygon fill="#EEEFEC" points="69.16,69.054 63.135,69.054 61.931,69.054 61.931,67.849 61.931,61.824 63.135,61.824 
			63.135,67.849 69.16,67.849 		"/>
		<circle fill="#EEEFEC" cx="56.36" cy="68.69" r="0.94"/>
		<circle fill="#EEEFEC" cx="62.467" cy="74.703" r="0.939"/>
	</g>
	<path fill="#EEEFEC" d="M48.029,68.69c0-8.022,6.491-14.514,14.513-14.514H48.029V68.69z"/>
</g>
</svg>
